<svg height="91" viewBox="0 0 90 91" width="90" xmlns="http://www.w3.org/2000/svg"
     xmlns:xlink="http://www.w3.org/1999/xlink">
    <linearGradient id="a" x1="77.095367%" x2="77.095366%" y1="89.843946%" y2="0%">
        <stop offset="0" stop-color="#0074ff"/>
        <stop offset="1" stop-color="#44c8f5"/>
    </linearGradient>
    <mask id="b" fill="#fff">
        <path
            d="m45.3555556 90.0800977c-24.6581953 0-44.64444449-20.0076765-44.64444449-44.6844933 0-24.6768169 19.98624919-44.68449329 44.64444449-44.68449329 24.6581952 0 44.6444444 20.00767639 44.6444444 44.68449329 0 24.6768168-19.9862492 44.6844933-44.6444444 44.6844933zm-.0666667-16.7912088c15.4623438 0 28-12.5344019 28-28s-12.5376562-28-28-28-28 12.5344019-28 28 12.5376562 28 28 28z"
            fill="none"/>
    </mask>
    <g fill="none" fill-rule="nonzero">
        <path
            d="m45.3555556 90.0800977c-24.6581953 0-44.64444449-20.0076765-44.64444449-44.6844933 0-24.6768169 19.98624919-44.68449329 44.64444449-44.68449329 24.6581952 0 44.6444444 20.00767639 44.6444444 44.68449329 0 24.6768168-19.9862492 44.6844933-44.6444444 44.6844933zm-.0666667-16.7912088c15.4623438 0 28-12.5344019 28-28s-12.5376562-28-28-28-28 12.5344019-28 28 12.5376562 28 28 28z"
            fill="url(#a)"/>
        <path d="m33.9777778 55.3406593h16.4l34.6222222 34.6593407h-16.4z" fill="#000" fill-opacity=".5"
              mask="url(#b)"/>
        <path d="m38.9777778 55.3406593h20.4l30.6222222 34.6593407h-20.4z" fill="#44c8f5"/>
    </g>
</svg>
