<?xml version="1.0" standalone="no"?>
<!DOCTYPE svg PUBLIC "-//W3C//DTD SVG 20010904//EN"
 "http://www.w3.org/TR/2001/REC-SVG-20010904/DTD/svg10.dtd">
<svg version="1.0" xmlns="http://www.w3.org/2000/svg"
 width="728.000000pt" height="728.000000pt" viewBox="0 0 728.000000 728.000000"
 preserveAspectRatio="xMidYMid meet">
<metadata>
Created by potrace 1.11, written by Peter Selinger 2001-2013
</metadata>
<g transform="translate(0.000000,728.000000) scale(0.100000,-0.100000)"
fill="#000000" stroke="none">
<path d="M3597 7224 c-1 -1 -56 -5 -122 -8 -171 -10 -288 -22 -390 -42 -11 -2
-36 -6 -55 -9 -20 -2 -67 -12 -105 -21 -39 -9 -81 -18 -95 -20 -14 -3 -47 -12
-75 -20 -27 -9 -60 -17 -71 -20 -31 -6 -263 -83 -299 -99 -16 -7 -75 -32 -130
-55 -55 -23 -129 -57 -165 -76 -35 -19 -70 -34 -76 -34 -7 0 -14 -3 -16 -7 -1
-5 -19 -16 -38 -27 -83 -44 -131 -72 -220 -130 -52 -33 -101 -66 -108 -73 -6
-6 -21 -15 -32 -18 -11 -3 -20 -10 -20 -15 0 -5 -13 -16 -30 -25 -16 -8 -40
-26 -54 -40 -14 -14 -29 -25 -33 -25 -5 0 -15 -9 -23 -20 -8 -11 -19 -20 -25
-20 -6 0 -20 -10 -32 -22 -11 -13 -44 -43 -74 -68 -64 -53 -275 -265 -339
-340 -25 -30 -51 -59 -57 -66 -7 -7 -13 -17 -13 -23 0 -6 -3 -11 -8 -11 -8 0
-63 -72 -153 -200 -32 -47 -63 -90 -69 -97 -5 -7 -10 -14 -10 -17 0 -3 -13
-25 -30 -49 -16 -25 -30 -48 -30 -53 0 -4 -6 -15 -14 -23 -57 -65 -297 -600
-320 -716 -2 -5 -12 -41 -24 -80 -21 -70 -66 -253 -76 -310 -3 -16 -8 -39 -10
-50 -2 -11 -7 -40 -11 -65 -4 -25 -9 -52 -10 -60 -27 -153 -49 -589 -31 -618
3 -6 2 -13 -4 -17 -6 -4 -8 -10 -5 -15 2 -4 8 -54 11 -111 6 -99 10 -148 14
-159 2 -3 2 -8 2 -11 -2 -15 31 -221 50 -314 21 -107 36 -165 63 -259 9 -32
18 -64 20 -70 2 -13 0 -6 56 -161 24 -66 44 -122 44 -125 1 -3 13 -31 28 -64
15 -32 27 -61 27 -63 0 -26 203 -394 283 -513 32 -47 197 -271 207 -280 3 -3
30 -34 60 -70 119 -141 255 -273 485 -469 44 -37 236 -175 286 -206 152 -92
219 -131 290 -167 46 -24 86 -45 89 -48 3 -3 10 -6 17 -7 6 -1 44 -19 85 -38
40 -20 80 -38 89 -40 8 -2 33 -11 55 -21 21 -9 41 -18 44 -19 3 -1 12 -4 20
-8 53 -21 266 -87 365 -112 36 -10 28 -8 145 -33 94 -21 114 -24 200 -37 25
-4 56 -8 70 -10 213 -32 706 -37 865 -9 17 3 48 7 70 9 38 3 76 9 135 20 14 3
39 7 55 10 17 3 41 7 55 10 14 3 36 8 50 11 14 3 43 10 65 15 22 5 48 11 58
14 10 2 28 7 40 11 12 5 27 8 32 9 6 0 56 15 112 33 57 18 105 33 108 33 11 0
295 119 354 148 64 31 91 38 91 24 0 -5 21 -31 48 -58 26 -28 70 -77 99 -110
28 -33 62 -72 75 -86 94 -104 101 -111 119 -106 11 3 21 1 24 -4 3 -4 16 -4
30 1 13 5 27 5 30 1 3 -5 21 -5 40 -1 19 4 37 4 40 -1 3 -4 16 -4 29 1 13 5
27 6 30 2 8 -8 103 -5 116 3 6 3 10 2 10 -4 0 -6 11 -6 30 -1 17 5 30 5 30 1
0 -4 20 -5 45 -1 25 4 48 3 51 -1 2 -5 16 -4 29 1 13 5 27 5 30 1 3 -5 21 -5
40 -1 19 4 35 4 35 0 0 -5 13 -5 30 0 18 5 32 5 36 -1 3 -5 9 -7 13 -5 7 5 48
6 159 5 34 0 67 3 72 6 6 3 10 2 10 -4 0 -6 11 -6 30 -1 19 5 30 5 30 -1 0 -6
4 -8 8 -5 8 5 52 6 170 5 34 0 66 3 71 6 5 3 12 1 16 -4 3 -7 15 -7 30 -1 13
5 26 6 29 2 3 -5 30 -5 61 -2 31 3 58 3 61 -2 3 -4 15 -3 28 2 13 5 27 6 30 3
4 -5 86 -11 86 -7 0 2 -114 134 -185 214 -22 25 -54 60 -70 79 -17 19 -39 44
-50 57 -26 28 -134 151 -158 178 -27 31 -120 137 -132 150 -6 6 -44 49 -85 96
-41 47 -77 87 -80 90 -3 3 -36 41 -74 85 -39 44 -75 85 -80 90 -6 6 -24 25
-39 44 -27 32 -27 34 -10 51 16 15 74 80 144 160 46 53 189 249 244 335 123
190 237 409 316 606 36 91 100 273 105 299 2 14 9 36 14 50 8 23 41 149 54
210 3 14 11 48 17 75 6 28 12 64 14 80 2 17 6 44 10 60 3 17 8 48 11 70 3 22
7 56 10 75 25 173 25 686 -1 830 -2 14 -6 48 -9 75 -3 28 -8 61 -10 75 -3 14
-10 52 -16 85 -5 33 -13 73 -15 88 -3 15 -19 80 -36 145 -17 64 -32 124 -34
132 -2 8 -4 16 -5 18 -2 1 -3 5 -4 10 -31 125 -129 367 -229 567 -85 170 -260
454 -342 553 -8 9 -37 46 -65 82 -121 153 -310 346 -480 490 -14 12 -37 32
-51 44 -14 13 -32 27 -41 32 -8 5 -31 22 -49 37 -59 48 -190 138 -298 204 -58
35 -111 69 -118 75 -7 6 -13 7 -13 3 0 -5 -8 -1 -17 7 -16 14 -211 111 -303
151 -141 61 -421 156 -541 183 -10 2 -28 6 -39 9 -19 5 -30 7 -90 20 -179 38
-347 61 -514 69 -41 2 -79 7 -85 10 -6 4 -11 2 -11 -4 0 -6 -5 -8 -11 -4 -10
5 -186 13 -192 8z m283 -1338 c56 -6 218 -31 255 -39 11 -3 49 -12 85 -20 67
-16 248 -77 310 -104 101 -45 210 -99 245 -123 22 -15 45 -29 50 -30 18 -4
208 -138 264 -185 122 -104 305 -293 325 -336 5 -10 12 -19 16 -19 17 0 183
-266 245 -391 36 -75 67 -142 69 -150 1 -8 10 -31 19 -52 14 -32 30 -83 43
-129 1 -5 3 -10 4 -13 1 -3 3 -8 4 -12 2 -5 8 -28 15 -53 7 -25 14 -54 16 -65
2 -11 8 -42 14 -70 46 -218 55 -450 26 -720 -7 -64 -35 -211 -55 -285 -7 -25
-14 -52 -16 -60 -9 -36 -54 -167 -64 -182 -5 -10 -10 -23 -10 -29 0 -6 -17
-45 -37 -87 -21 -42 -38 -79 -38 -82 -4 -17 -40 -80 -47 -80 -4 0 -8 -6 -8
-13 0 -24 -154 -251 -227 -334 l-20 -22 -30 37 c-17 20 -46 54 -65 74 -18 20
-54 61 -80 90 -26 29 -63 70 -82 92 -20 21 -36 41 -36 44 0 2 -10 14 -22 26
-13 12 -52 55 -88 95 -36 41 -82 93 -102 115 -21 23 -38 44 -38 48 0 4 -12 13
-27 20 -22 11 -190 13 -823 12 -437 -1 -798 -3 -803 -3 -7 -1 11 -23 73 -91
31 -34 68 -75 150 -170 36 -41 72 -81 80 -90 8 -9 29 -32 45 -51 101 -116 173
-197 195 -220 14 -15 43 -48 65 -74 22 -26 51 -59 65 -74 14 -15 52 -58 85
-96 33 -37 67 -76 75 -85 8 -9 42 -48 75 -85 33 -38 71 -81 85 -96 36 -40 115
-129 144 -164 14 -16 22 -33 18 -37 -9 -8 -154 -45 -252 -64 -212 -40 -453
-47 -685 -19 -80 10 -131 18 -138 22 -4 2 -24 7 -45 9 -20 3 -46 8 -57 11 -11
4 -24 8 -30 9 -26 5 -104 27 -145 41 -25 8 -49 16 -55 17 -5 2 -23 8 -38 14
-16 7 -30 12 -33 12 -2 0 -33 13 -67 30 -35 16 -67 30 -71 30 -5 0 -20 9 -34
19 -15 10 -31 19 -35 19 -12 -1 -221 124 -225 134 -2 4 -10 8 -18 8 -8 0 -14
4 -14 8 0 4 -14 16 -31 26 -18 10 -39 26 -49 35 -9 9 -36 32 -61 51 -73 57
-151 132 -264 256 -50 54 -120 147 -195 258 -50 75 -131 228 -185 351 -24 55
-82 229 -100 299 -25 101 -24 98 -39 186 -3 14 -5 25 -6 25 -2 0 -4 19 -16
145 -14 145 -8 387 12 520 6 39 22 134 28 167 13 63 84 301 96 318 3 6 15 33
25 60 41 112 219 425 276 485 8 8 27 33 44 55 65 88 209 234 325 331 199 165
479 320 710 394 126 40 160 49 257 69 110 23 151 29 258 37 39 3 71 7 72 8 5
4 289 -2 343 -8z"/>
</g>
</svg>
