<?xml version="1.0" encoding="UTF-8"?>
<svg width="566px" height="354px" viewBox="0 0 566 354" version="1.1" xmlns="http://www.w3.org/2000/svg" xmlns:xlink="http://www.w3.org/1999/xlink">
    <!-- Generator: Sketch 47.1 (45422) - http://www.bohemiancoding.com/sketch -->
    <title>Group 2</title>
    <desc>Created with Sketch.</desc>
    <defs></defs>
    <g id="Page-1" stroke="none" stroke-width="1" fill="none" fill-rule="evenodd">
        <g id="Group-2">
            <rect id="Rectangle-5" fill="#FFFFFF" x="0" y="0" width="566" height="354"></rect>
            <g id="Group-6" transform="translate(61.000000, 37.000000)">
                <text id="Aa" font-family="SFProText-Semibold, SF Pro Text" font-size="42" font-weight="500" line-spacing="42" fill="#9B9B9B">
                    <tspan x="120" y="268">Aa</tspan>
                </text>
                <text id="Aa-Copy" font-family="SFProText-Semibold, SF Pro Text" font-size="42" font-weight="500" line-spacing="42" fill="#9B9B9B">
                    <tspan x="197" y="268">Aa</tspan>
                </text>
                <rect id="Rectangle-3" fill="#E0E0E0" x="0" y="59" width="80" height="6"></rect>
                <rect id="Rectangle-3-Copy-10" fill="#E0E0E0" x="120" y="0" width="51" height="6"></rect>
                <rect id="Rectangle-3-Copy-11" fill="#E0E0E0" x="201" y="0" width="51" height="6"></rect>
                <rect id="Rectangle-3-Copy-12" fill="#E0E0E0" x="359" y="0" width="51" height="6"></rect>
                <rect id="Rectangle-3-Copy-13" fill="#E0E0E0" x="120" y="277" width="50" height="6"></rect>
                <rect id="Rectangle-3-Copy-14" fill="#E0E0E0" x="197" y="277" width="50" height="6"></rect>
                <rect id="Rectangle-3-Copy-4" fill="#F4F4F4" x="120" y="57" width="290" height="61"></rect>
                <rect id="Rectangle-3-Copy-9" fill="#057FFF" x="0" y="0" width="31" height="29"></rect>
                <rect id="Rectangle-3-Copy" fill="#E0E0E0" x="0" y="77" width="80" height="6"></rect>
                <rect id="Rectangle-3-Copy-2" fill="#E0E0E0" x="0" y="95" width="80" height="6"></rect>
                <rect id="Rectangle-3-Copy-5" fill="#E0E0E0" x="120" y="203" width="50" height="6"></rect>
                <rect id="Rectangle-3-Copy-6" fill="#E0E0E0" x="197" y="203" width="50" height="6"></rect>
                <rect id="Rectangle-3-Copy-7" fill="#E0E0E0" x="275" y="203" width="50" height="6"></rect>
                <rect id="Rectangle-3-Copy-8" fill="#E0E0E0" x="360" y="203" width="50" height="6"></rect>
                <circle id="Oval-3" fill="#057FFF" cx="145" cy="165" r="25"></circle>
                <circle id="Oval-3-Copy" fill="#000000" cx="222" cy="165" r="25"></circle>
                <circle id="Oval-3-Copy-2" fill="#4A4A4A" cx="300" cy="165" r="25"></circle>
                <circle id="Oval-3-Copy-3" fill="#9B9B9B" cx="385" cy="165" r="25"></circle>
            </g>
        </g>
    </g>
</svg>