<svg height="447" viewBox="0 0 576 447" width="576" xmlns="http://www.w3.org/2000/svg" xmlns:xlink="http://www.w3.org/1999/xlink"><defs><path id="a" d="m1.32811419 4.63476562h1.24414062v2.04394532h1.16894532v1.00488281h-1.16894532v4.77832035c0 .2552096.08658768.4261063.25976563.5126953.0957036.0501304.25520722.0751953.47851562.0751953.05924509 0 .12304654-.0011393.19140625-.003418.06835972-.0022786.14811153-.0079752.23925782-.0170898v.9707031c-.14127675.0410158-.28824794.0706379-.44091797.0888672-.15267004.0182292-.31787021.0273437-.49560547.0273437-.57422162 0-.96386616-.1469711-1.16894531-.4409179s-.30761719-.6756162-.30761719-1.1450196v-4.84667965h-.99121094v-1.00488281h.99121094zm8.21679688 2.04394532h1.36035153c-.1731779.46940339-.5582652 1.54035622-1.15527341 3.21289062-.44661682 1.25781884-.820311 2.28319914-1.12109375 3.07617184-.71094105 1.868499-1.21223812 3.0078105-1.50390625 3.4179688s-.7929652.6152344-1.50390625.6152344c-.17317795 0-.3064774-.0068359-.39990234-.0205078-.09342495-.013672-.20849541-.0387368-.34521485-.0751954v-1.1210937c.21419378.0592451.36914015.095703.46484375.109375.09570361.0136719.18001266.0205078.25292969.0205078.22786572 0 .39534452-.0375973.50244141-.112793s.1971025-.1674799.27001953-.2768554c.02278657-.0364586.104817-.2233056.24609375-.5605469s.24381478-.5878898.30761718-.7519531l-2.70703125-7.53320316h1.39453125l1.96191407 5.96093746zm5.51660153 6.49414066c.5742216 0 1.0515932-.2403948 1.4321289-.7211914.3805358-.4807967.5708008-1.1997023.5708008-2.1567383 0-.58333628-.084309-1.08463335-.2529297-1.50390628-.319012-.80664465-.9023395-1.20996093-1.75-1.20996093-.8522178 0-1.4355453.42610251-1.75 1.27832031-.1686206.45573145-.2529297 1.0345017-.2529297 1.7363281 0 .565107.0843091 1.0458965.2529297 1.4423828.319012.7565142.9023395 1.1347657 1.75 1.1347657zm-3.1855468-6.45996098h1.196289v.97070313c.246095-.33268396.5149725-.59016836.8066406-.77246094.4147157-.27343886.902341-.41015625 1.4628907-.41015625.8294312 0 1.5335257.31786792 2.1123047.95361328.5787789.63574537.868164 1.54377665.868164 2.72412106 0 1.5950601-.416988 2.7343716-1.2509765 3.4179688-.5286485.4329449-1.1438767.6494141-1.8457032.6494141-.551435 0-1.0139955-.1207671-1.3876953-.3623047-.2187511-.1367195-.4625637-.3714176-.7314453-.7041016v3.7392578h-1.2304687zm10.930664-.19824218c.5195339 0 1.0231096.12190633 1.5107422.36572265.4876326.24381633.8590482.55940562 1.1142578.94677735.246095.36914247.4101559.79980222.4921875 1.29199218.072917.33724127.109375.87499631.109375 1.61328128h-5.3662109c.0227865.7428422.1982405 1.3387022.5263672 1.7875976.3281266.4488955.8362595.6733399 1.524414.6733399.6425814 0 1.1552716-.211912 1.538086-.6357422.2187511-.246095.3736974-.5309229.4648437-.8544922h1.209961c-.0319012.2688816-.1378572.5685205-.3178711.8989258-.180014.3304053-.3816721.6004221-.6049805.8100586-.3736998.3645851-.8362603.6106764-1.3876953.7382812-.2962255.0729171-.631183.109375-1.0048828.109375-.9114629 0-1.6839161-.3315396-2.3173828-.9946289-.6334668-.6630892-.9501954-1.5916281-.9501954-2.7856445 0-1.17578714.3190073-2.1305302.9570313-2.86425782.638024-.73372763 1.472-1.10058594 2.5019531-1.10058594zm1.9619141 3.24023437c-.0501305-.53320579-.1663403-.9593083-.3486328-1.27832031-.3372413-.59245088-.9000612-.88867188-1.6884766-.88867188-.565107 0-1.0390606.20393677-1.421875.61181641s-.5856119.92626639-.6083984 1.55517578zm6.665039-3.04199219h1.2509766v7.28710938h-1.2509766zm0-2.75488281h1.2509766v1.39453125h-1.2509766zm3.8417969 7.74511719c.0364585.4101583.1389966.7246083.3076172.9433594.3098974.3964863.8476524.5947265 1.6132813.5947265.4557314 0 .8567691-.0991201 1.203125-.2973632.3463559-.1982432.5195312-.504718.5195312-.9194336 0-.3144547-.138996-.5537102-.4169922-.7177735-.1777352-.1002609-.5286432-.2164707-1.0527344-.3486328l-.977539-.2460937c-.6243521-.1549487-1.084634-.3281241-1.3808594-.5195313-.5286485-.33268394-.7929687-.7929658-.7929687-1.38085936 0-.6927118.2495092-1.25325307.7485351-1.68164063s1.1700804-.64257812 2.0131836-.64257812c1.1028701 0 1.8981095.32356447 2.3857422.97070312.3053401.4101583.4534506.85221117.4443359 1.32617188h-1.1621093c-.0227866-.27799618-.1207674-.53092334-.2939454-.75878907-.2825535-.32356932-.7724574-.48535156-1.4697265-.48535156-.4648461 0-.8168934.0888663-1.0561524.26660156-.239259.17773527-.3588867.41243344-.3588867.70410157 0 .31901201.157225.57421779.4716797.765625.1822926.11393286.4511701.21419227.8066406.30078125l.8134766.19824218c.884119.21419378 1.476561.42154848 1.7773437.62207028.4785181.3144547.7177735.8089159.7177735 1.4833985 0 .6516959-.2472306 1.2145158-.7416992 1.6884765-.4944687.4739607-1.2475536.7109375-2.2592774.7109375-1.0891981 0-1.860512-.2472306-2.3139648-.7416992s-.6961262-1.1062789-.7280274-1.8354492zm10.8896485 0c.0364585.4101583.1389965.7246083.3076171.9433594.3098974.3964863.8476525.5947265 1.6132813.5947265.4557314 0 .8567691-.0991201 1.203125-.2973632.3463559-.1982432.5195312-.504718.5195312-.9194336 0-.3144547-.138996-.5537102-.4169921-.7177735-.1777353-.1002609-.5286433-.2164707-1.0527344-.3486328l-.9775391-.2460937c-.6243521-.1549487-1.0846339-.3281241-1.3808594-.5195313-.5286484-.33268394-.7929687-.7929658-.7929687-1.38085936 0-.6927118.2495092-1.25325307.7485351-1.68164063.499026-.42838756 1.1700805-.64257812 2.0131836-.64257812 1.1028701 0 1.8981096.32356447 2.3857422.97070312.3053401.4101583.4534506.85221117.444336 1.32617188h-1.1621094c-.0227866-.27799618-.1207674-.53092334-.2939453-.75878907-.2825535-.32356932-.7724575-.48535156-1.4697266-.48535156-.4648461 0-.8168933.0888663-1.0561523.26660156-.239259.17773527-.3588867.41243344-.3588867.70410157 0 .31901201.1572249.57421779.4716796.765625.1822926.11393286.4511701.21419227.8066407.30078125l.8134765.19824218c.884119.21419378 1.476561.42154848 1.7773438.62207028.478518.3144547.7177734.8089159.7177734 1.4833985 0 .6516959-.2472306 1.2145158-.7416992 1.6884765s-1.2475535.7109375-2.2592773.7109375c-1.0891982 0-1.8605121-.2472306-2.3139649-.7416992s-.6961261-1.1062789-.7280273-1.8354492zm6.5146484-7.06835938h1.2441406v2.04394532h1.1689453v1.00488281h-1.1689453v4.77832035c0 .2552096.0865877.4261063.2597656.5126953.0957036.0501304.2552073.0751953.4785157.0751953.0592451 0 .1230465-.0011393.1914062-.003418.0683597-.0022786.1481115-.0079752.2392578-.0170898v.9707031c-.1412767.0410158-.2882479.0706379-.4409179.0888672-.1526701.0182292-.3178702.0273437-.4956055.0273437-.5742216 0-.9638662-.1469711-1.1689453-.4409179-.2050792-.2939468-.3076172-.6756162-.3076172-1.1450196v-4.84667965h-.9912109v-1.00488281h.9912109zm4.5869141 7.41699218c0 .3554705.1298815.6357412.3896484.8408203.2597669.2050792.567381.3076172.9228516.3076172.4329448 0 .8522115-.1002594 1.2578125-.3007812.6835971-.332684 1.0253906-.8772749 1.0253906-1.6337891v-.9912109c-.1503914.0957036-.3440744.1754554-.5810547.2392578-.2369804.0638024-.4693999.1093748-.6972656.1367187l-.7451172.0957032c-.4466168.059245-.7815744.1526686-1.0048828.2802734-.3782571.2141938-.5673828.5559872-.5673828 1.0253906zm2.9804687-2.48828124c.2825535-.03645851.4716792-.15494691.5673828-.35546875.0546878-.10937554.0820313-.26660053.0820313-.47167969 0-.41927292-.1492498-.7234691-.4477539-.91259765s-.725746-.28369141-1.2817383-.28369141c-.6425814 0-1.098306.17317535-1.3671875.51953125-.1503914.19140721-.2483722.47623509-.2939453.85449219h-1.1484375c.0227865-.90234826.3155896-1.53010891.8784179-1.88330078.5628284-.35319187 1.2156539-.52978516 1.9584961-.52978516.8613325 0 1.5608697.16406086 2.0986328.4921875.5332058.32812664.7998047.83853821.7998047 1.53125v4.21777344c0 .1276048.0262042.2301428.0786133.3076172.0524091.0774743.1629223.1162109.331543.1162109.0546878 0 .1162106-.0034179.1845703-.0102539s.1412756-.0170898.21875-.0307617v.9091797c-.1914072.0546878-.3372391.0888671-.4375.1025391-.1002609.0136719-.2369783.0205078-.4101563.0205078-.4238302 0-.7314443-.1503892-.9228515-.4511719-.1002609-.159506-.1708983-.3850897-.2119141-.6767578-.2506523.3281266-.6106747.6129545-1.0800781.8544922-.4694034.2415376-.9866508.3623047-1.5517578.3623047-.6790399 0-1.2338846-.2062154-1.6645508-.6186524s-.6459961-.9285451-.6459961-1.5483398c0-.6790399.2119119-1.2054018.6357422-1.5791016.4238302-.3736998.9798143-.60384071 1.6679687-.69042969zm4.1083984-4.92871094h1.2441407v2.04394532h1.1689453v1.00488281h-1.1689453v4.77832035c0 .2552096.0865876.4261063.2597656.5126953.0957036.0501304.2552072.0751953.4785156.0751953.0592451 0 .1230465-.0011393.1914063-.003418.0683597-.0022786.1481115-.0079752.2392578-.0170898v.9707031c-.1412768.0410158-.288248.0706379-.440918.0888672-.15267.0182292-.3178702.0273437-.4956055.0273437-.5742216 0-.9638661-.1469711-1.1689453-.4409179-.2050791-.2939468-.3076172-.6756162-.3076172-1.1450196v-4.84667965h-.9912109v-1.00488281h.9912109zm3.6435547 2.078125h1.2509766v7.28710938h-1.2509766zm0-2.75488281h1.2509766v1.39453125h-1.2509766zm5.9335938 2.50878907c.8248739 0 1.4959284.20051882 2.0131836.6015625.5172552.40104367.8282872 1.09146645.9331054 2.07128906h-1.196289c-.0729171-.45117413-.2392565-.82600762-.4990235-1.12451172-.2597669-.2985041-.6767549-.44775391-1.2509765-.44775391-.7838581 0-1.3443994.38280867-1.6816406 1.1484375-.2187511.49674728-.328125 1.10969688-.328125 1.83886719 0 .7337276.1549463 1.3512345.4648437 1.8525391s.7975227.7519531 1.4628906.7519531c.5104192 0 .9148748-.1560857 1.2133789-.4682617.2985041-.3121761.5047195-.7394179.6186524-1.2817383h1.196289c-.1367194.970708-.4785129 1.680499-1.0253906 2.1293945s-1.246415.6733399-2.0986328.6733399c-.957036 0-1.7203748-.3497687-2.2900391-1.0493164-.5696643-.6995478-.8544921-1.5733998-.8544921-2.6215821 0-1.28516265.3121713-2.28547817.9365234-3.00097654s1.4195915-1.07324218 2.3857422-1.07324218zm7.9707031-2.54296876h1.1962891v3.64355469c.2688815-.35091321.5901674-.61865142.9638672-.80322265.3736997-.18457124.7792946-.27685547 1.2167968-.27685547.9114629 0 1.6508761.31331067 2.2182617.9399414.5673857.62663074.8510743 1.55061239.8510743 2.77197271 0 1.1575578-.2802707 2.1191367-.8408203 2.8847656-.5605497.7656288-1.3375602 1.1484375-2.3310547 1.1484375-.5559924 0-1.0253887-.1344388-1.4082032-.4033203-.2278657-.159506-.4716783-.4147118-.7314453-.765625v.9365234h-1.1347656zm3.1992188 9.22167968c.6653679 0 1.163247-.2643203 1.4936523-.7929687.3304053-.5286485.4956055-1.2259072.4956055-2.0917969 0-.77018616-.1652002-1.40820061-.4956055-1.91406251-.3304053-.50586191-.8168913-.75878907-1.4594727-.75878907-.5605496 0-1.0515929.2073547-1.4731445.62207032-.4215516.41471561-.6323242 1.09830253-.6323242 2.05078126 0 .6881545.0865877 1.2464171.2597656 1.6748047.3235693.8066446.9274044 1.2099609 1.8115235 1.2099609zm7.7314453-6.63085936c.5195338 0 1.0231095.12190633 1.5107422.36572265.4876326.24381633.8590482.55940562 1.1142578.94677735.2460949.36914247.4101558.79980222.4921875 1.29199218.072917.33724127.109375.87499631.109375 1.61328128h-5.366211c.0227866.7428422.1982406 1.3387022.5263672 1.7875976.3281267.4488955.8362596.6733399 1.5244141.6733399.6425813 0 1.1552715-.211912 1.5380859-.6357422.2187511-.246095.3736975-.5309229.4648438-.8544922h1.2099609c-.0319012.2688816-.1378572.5685205-.3178711.8989258s-.3816721.6004221-.6049805.8100586c-.3736997.3645851-.8362602.6106764-1.3876953.7382812-.2962254.0729171-.631183.109375-1.0048828.109375-.9114629 0-1.6839161-.3315396-2.3173828-.9946289-.6334667-.6630892-.9501953-1.5916281-.9501953-2.7856445 0-1.17578714.3190072-2.1305302.9570312-2.86425782.6380241-.73372763 1.4720001-1.10058594 2.5019532-1.10058594zm1.961914 3.24023437c-.0501304-.53320579-.1663402-.9593083-.3486328-1.27832031-.3372413-.59245088-.9000611-.88867188-1.6884765-.88867188-.565107 0-1.0390606.20393677-1.421875.61181641-.3828145.40787964-.5856119.92626639-.6083985 1.55517578zm2.8095703-5.796875h1.2304688v10.04199219h-1.2304688zm5.9814451 9.24902339c.81576 0 1.375161-.3087534 1.678223-.9262695.303061-.6175161.45459-1.3045209.45459-2.0610351 0-.68359721-.109374-1.23958123-.328125-1.66796879-.346356-.67448254-.943355-1.01171875-1.791016-1.01171875-.751957 0-1.298826.28710651-1.640625.86132813-.341798.57422162-.512695 1.26692302-.512695 2.07812501 0 .7793008.170897 1.4287083.512695 1.9482422.341799.5195338.884111.7792968 1.626953.7792968zm.047852-6.74023432c.943364 0 1.740882.31444998 2.392578.94335937s.977539 1.55403035.977539 2.77539065c0 1.1803444-.287107 2.1555951-.861328 2.9257812-.574222.7701862-1.465163 1.1552735-2.672852 1.1552735-1.007166 0-1.806963-.3406542-2.399414-1.0219727s-.888672-1.5961857-.888672-2.7446289c0-1.2304749.312172-2.21028281.936524-2.93945312.624352-.72917032 1.462885-1.09375 2.515625-1.09375zm5.40039.21191406 1.408204 5.76953126 1.428711-5.76953126h1.380859l1.435547 5.73535156 1.49707-5.73535156h1.230469l-2.125977 7.32128906h-1.27832l-1.490234-5.66699219-1.442383 5.66699219h-1.278321l-2.112304-7.32128906zm13.678711-2.04394532h1.244141v2.04394532h1.168945v1.00488281h-1.168945v4.77832035c0 .2552096.086588.4261063.259766.5126953.095703.0501304.255207.0751953.478515.0751953.059245 0 .123047-.0011393.191407-.003418.068359-.0022786.148111-.0079752.239257-.0170898v.9707031c-.141276.0410158-.288248.0706379-.440918.0888672-.15267.0182292-.31787.0273437-.495605.0273437-.574222 0-.963866-.1469711-1.168945-.4409179-.20508-.2939468-.307618-.6756162-.307618-1.1450196v-4.84667965h-.991211v-1.00488281h.991211zm3.643555-.7109375h1.230469v3.74609376c.291668-.36914248.55371-.6289055.786133-.77929688.396486-.25976692.890947-.38964844 1.483398-.38964844 1.061854 0 1.781899.37141556 2.160156 1.11425782.205079.40560098.307618.96842087.307618 1.68847656v4.69628906h-1.264649v-4.61425781c0-.53776311-.068359-.9319649-.205078-1.18261719-.223308-.40104367-.642575-.6015625-1.257813-.6015625-.510419 0-.972979.17545397-1.387695.52636719-.414715.35091321-.62207 1.01399252-.62207 1.98925781v3.8828125h-1.230469zm7.786133 2.7890625h1.250976v7.28710938h-1.250976zm0-2.75488281h1.250976v1.39453125h-1.250976zm3.841797 7.74511719c.036458.4101583.138996.7246083.307617.9433594.309897.3964863.847652.5947265 1.613281.5947265.455732 0 .856769-.0991201 1.203125-.2973632.346356-.1982432.519531-.504718.519531-.9194336 0-.3144547-.138996-.5537102-.416992-.7177735-.177735-.1002609-.528643-.2164707-1.052734-.3486328l-.977539-.2460937c-.624352-.1549487-1.084634-.3281241-1.38086-.5195313-.528648-.33268394-.792968-.7929658-.792968-1.38085936 0-.6927118.249509-1.25325307.748535-1.68164063s1.17008-.64257812 2.013183-.64257812c1.102871 0 1.89811.32356447 2.385743.97070312.30534.4101583.45345.85221117.444336 1.32617188h-1.16211c-.022786-.27799618-.120767-.53092334-.293945-.75878907-.282554-.32356932-.772458-.48535156-1.469727-.48535156-.464846 0-.816893.0888663-1.056152.26660156-.239259.17773527-.358887.41243344-.358887.70410157 0 .31901201.157225.57421779.47168.765625.182293.11393286.45117.21419227.806641.30078125l.813476.19824218c.884119.21419378 1.476561.42154848 1.777344.62207028.478518.3144547.717773.8089159.717773 1.4833985 0 .6516959-.24723 1.2145158-.741699 1.6884765s-1.247553.7109375-2.259277.7109375c-1.089198 0-1.860512-.2472306-2.313965-.7416992s-.696126-1.1062789-.728027-1.8354492zm13.248047 1.4697266c.574221 0 1.051593-.2403948 1.432129-.7211914.380535-.4807967.5708-1.1997023.5708-2.1567383 0-.58333628-.084309-1.08463335-.252929-1.50390628-.319012-.80664465-.90234-1.20996093-1.75-1.20996093-.852218 0-1.435546.42610251-1.75 1.27832031-.168621.45573145-.25293 1.0345017-.25293 1.7363281 0 .565107.084309 1.0458965.25293 1.4423828.319012.7565142.902339 1.1347657 1.75 1.1347657zm-3.185547-6.45996098h1.196289v.97070313c.246095-.33268396.514972-.59016836.80664-.77246094.414716-.27343886.902341-.41015625 1.462891-.41015625.829431 0 1.533526.31786792 2.112305.95361328.578779.63574537.868164 1.54377665.868164 2.72412106 0 1.5950601-.416988 2.7343716-1.250977 3.4179688-.528648.4329449-1.143876.6494141-1.845703.6494141-.551435 0-1.013995-.1207671-1.387695-.3623047-.218751-.1367195-.462564-.3714176-.731445-.7041016v3.7392578h-1.230469zm10.787109 6.49414058c.815759 0 1.375161-.3087534 1.678223-.9262695.303061-.6175161.45459-1.3045209.45459-2.0610351 0-.68359721-.109374-1.23958123-.328125-1.66796879-.346356-.67448254-.943356-1.01171875-1.791016-1.01171875-.751957 0-1.298826.28710651-1.640625.86132813s-.512695 1.26692302-.512695 2.07812501c0 .7793008.170896 1.4287083.512695 1.9482422.341799.5195338.884111.7792968 1.626953.7792968zm.047852-6.74023432c.943364 0 1.740882.31444998 2.392578.94335937s.977539 1.55403035.977539 2.77539065c0 1.1803444-.287107 2.1555951-.861328 2.9257812-.574222.7701862-1.465163 1.1552735-2.672852 1.1552735-1.007166 0-1.806963-.3406542-2.399414-1.0219727s-.888672-1.5961857-.888672-2.7446289c0-1.2304749.312172-2.21028281.936524-2.93945312.624352-.72917032 1.462885-1.09375 2.515625-1.09375zm4.833008.24609374h1.250976v7.28710938h-1.250976zm0-2.75488281h1.250976v1.39453125h-1.250976zm3.110351 2.72070313h1.168945v1.0390625c.346356-.42838756.713215-.73600167 1.100586-.92285156.387372-.1868499.818032-.28027344 1.291993-.28027344 1.039067 0 1.740883.36230106 2.105468 1.08691406.200522.39648636.300782.9638635.300782 1.70214844v4.69628906h-1.250977v-4.61425781c0-.44661682-.06608-.80663926-.198242-1.08007813-.218751-.45573144-.615232-.68359375-1.189453-.68359375-.291668 0-.530924.0296221-.717774.08886719-.337241.10026092-.633462.30077975-.888672.6015625-.205079.24153767-.338378.49104689-.399902.74853516-.061524.25748826-.092285.62548588-.092285 1.10400394v3.8349609h-1.230469zm8.032227-2.04394532h1.24414v2.04394532h1.168946v1.00488281h-1.168946v4.77832035c0 .2552096.086588.4261063.259766.5126953.095703.0501304.255207.0751953.478516.0751953.059245 0 .123046-.0011393.191406-.003418.068359-.0022786.148111-.0079752.239258-.0170898v.9707031c-.141277.0410158-.288248.0706379-.440918.0888672-.15267.0182292-.317871.0273437-.495606.0273437-.574221 0-.963866-.1469711-1.168945-.4409179s-.307617-.6756162-.307617-1.1450196v-4.84667965h-.991211v-1.00488281h.991211z"/><path id="b" d="m1.6577475 4.63476562h1.24414062v2.04394532h1.16894532v1.00488281h-1.16894532v4.77832035c0 .2552096.08658768.4261063.25976563.5126953.0957036.0501304.25520722.0751953.47851562.0751953.05924509 0 .12304654-.0011393.19140625-.003418.06835972-.0022786.14811153-.0079752.23925782-.0170898v.9707031c-.14127675.0410158-.28824794.0706379-.44091797.0888672-.15267004.0182292-.31787021.0273437-.49560547.0273437-.57422162 0-.96386616-.1469711-1.16894531-.4409179s-.30761719-.6756162-.30761719-1.1450196v-4.84667965h-.99121094v-1.00488281h.99121094zm8.21679687 2.04394532h1.36035153c-.1731779.46940339-.5582652 1.54035622-1.1552734 3.21289062-.44661682 1.25781884-.820311 2.28319914-1.12109375 3.07617184-.71094105 1.868499-1.21223813 3.0078105-1.50390625 3.4179688-.29166813.4101583-.7929652.6152344-1.50390625.6152344-.17317795 0-.3064774-.0068359-.39990234-.0205078-.09342495-.013672-.20849541-.0387368-.34521485-.0751954v-1.1210937c.21419378.0592451.36914015.095703.46484375.109375.09570361.0136719.18001266.0205078.25292969.0205078.22786572 0 .39534452-.0375973.50244141-.112793s.1971025-.1674799.27001953-.2768554c.02278657-.0364586.104817-.2233056.24609375-.5605469s.24381478-.5878898.30761718-.7519531l-2.70703125-7.53320316h1.39453125l1.96191407 5.96093746zm5.51660153 6.49414066c.5742217 0 1.0515932-.2403948 1.4321289-.7211914.3805358-.4807967.5708008-1.1997023.5708008-2.1567383 0-.58333628-.084309-1.08463335-.2529297-1.50390628-.319012-.80664465-.9023395-1.20996093-1.75-1.20996093-.8522178 0-1.4355453.42610251-1.75 1.27832031-.1686206.45573145-.2529297 1.0345017-.2529297 1.7363281 0 .565107.0843091 1.0458965.2529297 1.4423828.319012.7565142.9023395 1.1347657 1.75 1.1347657zm-3.1855468-6.45996098h1.196289v.97070313c.246095-.33268396.5149725-.59016836.8066406-.77246094.4147157-.27343886.902341-.41015625 1.4628907-.41015625.8294312 0 1.5335257.31786792 2.1123047.95361328.5787789.63574537.868164 1.54377665.868164 2.72412106 0 1.5950601-.416988 2.7343716-1.2509765 3.4179688-.5286485.4329449-1.1438767.6494141-1.8457032.6494141-.551435 0-1.0139955-.1207671-1.3876953-.3623047-.2187511-.1367195-.4625637-.3714176-.7314453-.7041016v3.7392578h-1.2304687zm10.930664-.19824218c.5195339 0 1.0231096.12190633 1.5107422.36572265.4876327.24381633.8590482.55940562 1.1142578.94677735.246095.36914247.4101559.79980222.4921875 1.29199218.0729171.33724127.109375.87499631.109375 1.61328128h-5.3662109c.0227866.7428422.1982405 1.3387022.5263672 1.7875976.3281266.4488955.8362596.6733399 1.524414.6733399.6425814 0 1.1552716-.211912 1.538086-.6357422.2187511-.246095.3736974-.5309229.4648437-.8544922h1.209961c-.0319012.2688816-.1378572.5685205-.3178711.8989258-.180014.3304053-.3816721.6004221-.6049805.8100586-.3736998.3645851-.8362603.6106764-1.3876953.7382812-.2962255.0729171-.631183.109375-1.0048828.109375-.9114629 0-1.6839161-.3315396-2.3173828-.9946289-.6334667-.6630892-.9501954-1.5916281-.9501954-2.7856445 0-1.17578714.3190073-2.1305302.9570313-2.86425782.638024-.73372763 1.4720001-1.10058594 2.5019531-1.10058594zm1.9619141 3.24023437c-.0501305-.53320579-.1663402-.9593083-.3486328-1.27832031-.3372413-.59245088-.9000612-.88867188-1.6884766-.88867188-.565107 0-1.0390606.20393677-1.421875.61181641s-.5856119.92626639-.6083984 1.55517578zm9.4882812-3.28808593c.824874 0 1.4959284.20051882 2.0131836.6015625.5172552.40104367.8282873 1.09146645.9331055 2.07128906h-1.1962891c-.072917-.45117413-.2392565-.82600762-.4990234-1.12451172s-.6767549-.44775391-1.2509766-.44775391c-.783858 0-1.3443993.38280867-1.6816406 1.1484375-.2187511.49674728-.328125 1.10969688-.328125 1.83886719 0 .7337276.1549464 1.3512345.4648438 1.8525391.3098973.5013046.7975227.7519531 1.4628906.7519531.5104192 0 .9148748-.1560857 1.2133789-.4682617.2985041-.3121761.5047195-.7394179.6186523-1.2817383h1.1962891c-.1367194.970708-.4785129 1.680499-1.0253906 2.1293945-.5468778.4488955-1.246415.6733399-2.0986328.6733399-.9570361 0-1.7203748-.3497687-2.2900391-1.0493164-.5696643-.6995478-.8544922-1.5733998-.8544922-2.6215821 0-1.28516265.3121714-2.28547817.9365234-3.00097654.6243521-.71549837 1.4195916-1.07324218 2.3857422-1.07324218zm4.1767578-2.54296876h1.2304688v3.74609376c.2916681-.36914248.5537098-.6289055.7861328-.77929688.3964864-.25976692.8909476-.38964844 1.4833984-.38964844 1.0618543 0 1.7818992.37141556 2.1601563 1.11425782.2050792.40560098.3076172.96842087.3076172 1.68847656v4.69628906h-1.2646485v-4.61425781c0-.53776311-.0683586-.9319649-.2050781-1.18261719-.2233084-.40104367-.642575-.6015625-1.2578125-.6015625-.5104192 0-.9729797.17545397-1.3876953.52636719-.4147156.35091321-.6220703 1.01399252-.6220703 1.98925781v3.8828125h-1.2304688zm8.7294922 8.12792968c0 .3554705.1298816.6357412.3896485.8408203.2597669.2050792.567381.3076172.9228515.3076172.4329449 0 .8522116-.1002594 1.2578125-.3007812.6835972-.332684 1.0253907-.8772749 1.0253907-1.6337891v-.9912109c-.1503914.0957036-.3440744.1754554-.5810547.2392578-.2369804.0638024-.4693999.1093748-.6972657.1367187l-.7451171.0957032c-.4466169.059245-.7815744.1526686-1.0048829.2802734-.378257.2141938-.5673828.5559872-.5673828 1.0253906zm2.9804688-2.48828124c.2825535-.03645851.4716792-.15494691.5673828-.35546875.0546878-.10937554.0820312-.26660053.0820312-.47167969 0-.41927292-.1492498-.7234691-.4477539-.91259765s-.7257459-.28369141-1.2817382-.28369141c-.6425814 0-1.098306.17317535-1.3671875.51953125-.1503914.19140721-.2483722.47623509-.2939454.85449219h-1.1484375c.0227866-.90234826.3155897-1.53010891.878418-1.88330078.5628284-.35319187 1.2156539-.52978516 1.9584961-.52978516.8613324 0 1.5608697.16406086 2.0986328.4921875.5332058.32812664.7998047.83853821.7998047 1.53125v4.21777344c0 .1276048.0262042.2301428.0786133.3076172.0524091.0774743.1629223.1162109.331543.1162109.0546877 0 .1162106-.0034179.1845703-.0102539s.1412756-.0170898.21875-.0307617v.9091797c-.1914072.0546878-.3372391.0888671-.4375.1025391-.1002609.0136719-.2369783.0205078-.4101563.0205078-.4238302 0-.7314443-.1503892-.9228515-.4511719-.100261-.159506-.1708983-.3850897-.2119141-.6767578-.2506523.3281266-.6106747.6129545-1.0800781.8544922-.4694034.2415376-.9866508.3623047-1.5517578.3623047-.6790399 0-1.2338846-.2062154-1.6645508-.6186524s-.6459961-.9285451-.6459961-1.5483398c0-.6790399.2119119-1.2054018.6357422-1.5791016.4238302-.3736998.9798142-.60384071 1.6679687-.69042969zm3.8623047-2.88476562h1.1689453v1.0390625c.3463559-.42838756.7132142-.73600167 1.1005859-.92285156.3873718-.1868499.8180315-.28027344 1.2919922-.28027344 1.0390677 0 1.7408836.36230106 2.1054688 1.08691406.2005218.39648636.3007812.9638635.3007812 1.70214844v4.69628906h-1.2509766v-4.61425781c0-.44661682-.06608-.80663926-.1982421-1.08007813-.2187511-.45573144-.6152315-.68359375-1.1894532-.68359375-.2916681 0-.5309235.0296221-.7177734.08886719-.3372413.10026092-.6334623.30077975-.8886719.6015625-.2050791.24153767-.3383786.49104689-.3999023.74853516-.0615238.25748826-.0922852.62548588-.0922852 1.10400394v3.8349609h-1.2304687zm10.3701172-.12988282c.5742216 0 1.0755187.14127463 1.5039062.42382813.232423.15950601.4693998.39192556.7109375.69726563v-.92285157h1.1347656v6.65820309c0 .9296922-.1367173 1.6634088-.4101562 2.2011719-.5104192.9934946-1.4742768 1.4902344-2.8916016 1.4902344-.7884154 0-1.4514947-.1765933-1.9892578-.5297852-.5377631-.3531918-.8385413-.9057579-.9023437-1.6577148h1.2509765c.0592451.3281266.1777335.5810538.3554688.7587891.2779962.2734388.7154918.4101562 1.3125.4101562.9433641 0 1.5608709-.332679 1.852539-.9980469.173178-.391929.2529298-1.0914663.2392578-2.0986328-.2460949.3736998-.5423159.6516918-.8886718.8339844s-.8043592.2734375-1.3740235.2734375c-.7929727 0-1.4868134-.28141-2.0815429-.8442383-.5947296-.5628283-.8920899-1.4936458-.8920899-2.7924805 0-1.22591755.299639-2.18293923.8989258-2.87109371.5992869-.68815448 1.3227497-1.03222657 2.1704102-1.03222657zm2.2148437 3.75976568c0-.90690563-.1868471-1.57909943-.5605469-2.01660161-.3736997-.43750219-.849932-.65625-1.4287109-.65625-.8658897 0-1.4583317.4055949-1.7773438 1.21679687-.1686206.43294488-.2529296 1.00032201-.2529296 1.70214844 0 .8248739.1674788 1.4526346.5024414 1.8833008s.7849906.6459961 1.3500976.6459961c.884119 0 1.5061831-.3987591 1.866211-1.1962891.2005218-.4511741.3007812-.977536.3007812-1.5791015zm6.0361328-3.79394536c.5195339 0 1.0231096.12190633 1.5107422.36572265.4876327.24381633.8590482.55940562 1.1142578.94677735.246095.36914247.4101559.79980222.4921875 1.29199218.0729171.33724127.109375.87499631.109375 1.61328128h-5.3662109c.0227866.7428422.1982405 1.3387022.5263672 1.7875976.3281266.4488955.8362596.6733399 1.524414.6733399.6425814 0 1.1552716-.211912 1.538086-.6357422.2187511-.246095.3736974-.5309229.4648437-.8544922h1.209961c-.0319012.2688816-.1378572.5685205-.3178711.8989258-.180014.3304053-.3816721.6004221-.6049805.8100586-.3736998.3645851-.8362603.6106764-1.3876953.7382812-.2962255.0729171-.631183.109375-1.0048828.109375-.9114629 0-1.6839161-.3315396-2.3173828-.9946289-.6334667-.6630892-.9501954-1.5916281-.9501954-2.7856445 0-1.17578714.3190073-2.1305302.9570313-2.86425782.638024-.73372763 1.4720001-1.10058594 2.5019531-1.10058594zm1.9619141 3.24023437c-.0501305-.53320579-.1663402-.9593083-.3486328-1.27832031-.3372413-.59245088-.9000612-.88867188-1.6884766-.88867188-.565107 0-1.0390606.20393677-1.421875.61181641s-.5856119.92626639-.6083984 1.55517578zm3.5068359 1.94824219c.0364585.4101583.1389966.7246083.3076172.9433594.3098974.3964863.8476524.5947265 1.6132813.5947265.4557314 0 .8567691-.0991201 1.203125-.2973632.3463559-.1982432.5195312-.504718.5195312-.9194336 0-.3144547-.138996-.5537102-.4169922-.7177735-.1777352-.1002609-.5286432-.2164707-1.0527344-.3486328l-.977539-.2460937c-.6243521-.1549487-1.0846339-.3281241-1.3808594-.5195313-.5286485-.33268394-.7929687-.7929658-.7929687-1.38085936 0-.6927118.2495092-1.25325307.7485351-1.68164063.499026-.42838756 1.1700804-.64257812 2.0131836-.64257812 1.1028701 0 1.8981096.32356447 2.3857422.97070312.3053401.4101583.4534506.85221117.4443359 1.32617188h-1.1621093c-.0227866-.27799618-.1207674-.53092334-.2939454-.75878907-.2825534-.32356932-.7724574-.48535156-1.4697265-.48535156-.4648461 0-.8168933.0888663-1.0561524.26660156-.239259.17773527-.3588867.41243344-.3588867.70410157 0 .31901201.157225.57421779.4716797.765625.1822926.11393286.4511701.21419227.8066406.30078125l.8134766.19824218c.884119.21419378 1.476561.42154848 1.7773437.62207028.4785181.3144547.7177735.8089159.7177735 1.4833985 0 .6516959-.2472306 1.2145158-.7416992 1.6884765s-1.2475536.7109375-2.2592774.7109375c-1.0891981 0-1.860512-.2472306-2.3139648-.7416992s-.6961262-1.1062789-.7280274-1.8354492zm10.8896485 0c.0364585.4101583.1389965.7246083.3076171.9433594.3098974.3964863.8476525.5947265 1.6132813.5947265.4557314 0 .8567691-.0991201 1.203125-.2973632.3463559-.1982432.5195312-.504718.5195312-.9194336 0-.3144547-.138996-.5537102-.4169921-.7177735-.1777353-.1002609-.5286433-.2164707-1.0527344-.3486328l-.9775391-.2460937c-.6243521-.1549487-1.0846339-.3281241-1.3808594-.5195313-.5286484-.33268394-.7929687-.7929658-.7929687-1.38085936 0-.6927118.2495092-1.25325307.7485352-1.68164063.4990259-.42838756 1.1700804-.64257812 2.0131835-.64257812 1.1028701 0 1.8981096.32356447 2.3857422.97070312.3053401.4101583.4534506.85221117.444336 1.32617188h-1.1621094c-.0227866-.27799618-.1207674-.53092334-.2939453-.75878907-.2825535-.32356932-.7724575-.48535156-1.4697266-.48535156-.464846 0-.8168933.0888663-1.0561523.26660156-.239259.17773527-.3588867.41243344-.3588867.70410157 0 .31901201.157225.57421779.4716796.765625.1822926.11393286.4511701.21419227.8066407.30078125l.8134765.19824218c.884119.21419378 1.476561.42154848 1.7773438.62207028.478518.3144547.7177734.8089159.7177734 1.4833985 0 .6516959-.2472306 1.2145158-.7416992 1.6884765s-1.2475535.7109375-2.2592773.7109375c-1.0891982 0-1.8605121-.2472306-2.3139649-.7416992s-.6961261-1.1062789-.7280273-1.8354492zm6.2685546-4.99023438h1.2509766v7.28710938h-1.2509766zm0-2.75488281h1.2509766v1.39453125h-1.2509766zm2.5634766 9.07128909 4.3408207-5.25000002h-4.0195316v-1.10058594h5.6738276v1.00488281l-4.3134761 5.21582035h4.4433591v1.1005859h-6.1249997zm10.5957027-6.51464846c.519534 0 1.02311.12190633 1.510743.36572265.487632.24381633.859048.55940562 1.114257.94677735.246095.36914247.410156.79980222.492188 1.29199218.072917.33724127.109375.87499631.109375 1.61328128h-5.366211c.022787.7428422.198241 1.3387022.526367 1.7875976.328127.4488955.83626.6733399 1.524414.6733399.642582 0 1.155272-.211912 1.538086-.6357422.218751-.246095.373698-.5309229.464844-.8544922h1.209961c-.031901.2688816-.137857.5685205-.317871.8989258s-.381672.6004221-.604981.8100586c-.373699.3645851-.83626.6106764-1.387695.7382812-.296225.0729171-.631183.109375-1.004883.109375-.911463 0-1.683916-.3315396-2.317383-.9946289-.633466-.6630892-.950195-1.5916281-.950195-2.7856445 0-1.17578714.319007-2.1305302.957031-2.86425782.638024-.73372763 1.472-1.10058594 2.501953-1.10058594zm1.961914 3.24023437c-.05013-.53320579-.16634-.9593083-.348632-1.27832031-.337242-.59245088-.900061-.88867188-1.688477-.88867188-.565107 0-1.03906.20393677-1.421875.61181641-.382814.40787964-.585612.92626639-.608398 1.55517578zm6.699219-3.07617187h1.168946v1.26464844c.095703-.24609499.330401-.54573392.704101-.89892579s.80436-.52978515 1.291992-.52978515c.022787 0 .061523.00227862.116211.00683594.054688.00455731.148112.0136718.280274.02734374v1.29882813c-.072917-.01367194-.140137-.02278644-.20166-.02734375-.061524-.00455731-.128744-.00683594-.201661-.00683594-.619794 0-1.096027.19937952-1.428711.59814453-.332684.39876502-.499023.85790756-.499023 1.37744141v4.2109375h-1.230469zm7.676758-.1640625c.519534 0 1.02311.12190633 1.510742.36572265.487633.24381633.859048.55940562 1.114258.94677735.246095.36914247.410156.79980222.492188 1.29199218.072917.33724127.109375.87499631.109375 1.61328128h-5.366211c.022786.7428422.19824 1.3387022.526367 1.7875976.328126.4488955.836259.6733399 1.524414.6733399.642581 0 1.155271-.211912 1.538086-.6357422.218751-.246095.373697-.5309229.464844-.8544922h1.20996c-.031901.2688816-.137857.5685205-.317871.8989258s-.381672.6004221-.60498.8100586c-.3737.3645851-.83626.6106764-1.387695.7382812-.296226.0729171-.631183.109375-1.004883.109375-.911463 0-1.683916-.3315396-2.317383-.9946289-.633467-.6630892-.950195-1.5916281-.950195-2.7856445 0-1.17578714.319007-2.1305302.957031-2.86425782.638024-.73372763 1.472-1.10058594 2.501953-1.10058594zm1.961914 3.24023437c-.05013-.53320579-.16634-.9593083-.348633-1.27832031-.337241-.59245088-.900061-.88867188-1.688476-.88867188-.565107 0-1.039061.20393677-1.421875.61181641-.382815.40787964-.585612.92626639-.608399 1.55517578zm2.80957-5.796875h1.230469v10.04199219h-1.230469zm4.019532 8.09374999c0 .3554705.129881.6357412.389648.8408203.259767.2050792.567381.3076172.922852.3076172.432945 0 .852211-.1002594 1.257812-.3007812.683597-.332684 1.025391-.8772749 1.025391-1.6337891v-.9912109c-.150392.0957036-.344075.1754554-.581055.2392578s-.4694.1093748-.697266.1367187l-.745117.0957032c-.446617.059245-.781574.1526686-1.004883.2802734-.378257.2141938-.567382.5559872-.567382 1.0253906zm2.980468-2.48828124c.282554-.03645851.47168-.15494691.567383-.35546875.054688-.10937554.082031-.26660053.082031-.47167969 0-.41927292-.149249-.7234691-.447753-.91259765-.298505-.18912855-.725746-.28369141-1.281739-.28369141-.642581 0-1.098306.17317535-1.367187.51953125-.150392.19140721-.248372.47623509-.293946.85449219h-1.148437c.022787-.90234826.31559-1.53010891.878418-1.88330078s1.215654-.52978516 1.958496-.52978516c.861332 0 1.56087.16406086 2.098633.4921875.533206.32812664.799805.83853821.799805 1.53125v4.21777344c0 .1276048.026204.2301428.078613.3076172.052409.0774743.162922.1162109.331543.1162109.054688 0 .11621-.0034179.18457-.0102539s.141276-.0170898.21875-.0307617v.9091797c-.191407.0546878-.337239.0888671-.4375.1025391-.100261.0136719-.236978.0205078-.410156.0205078-.42383 0-.731444-.1503892-.922852-.4511719-.100261-.159506-.170898-.3850897-.211914-.6767578-.250652.3281266-.610674.6129545-1.080078.8544922-.469403.2415376-.986651.3623047-1.551758.3623047-.67904 0-1.233884-.2062154-1.66455-.6186524-.430667-.412437-.645997-.9285451-.645997-1.5483398 0-.6790399.211912-1.2054018.635743-1.5791016.42383-.3736998.979814-.60384071 1.667968-.69042969zm4.108399-4.92871094h1.24414v2.04394532h1.168946v1.00488281h-1.168946v4.77832035c0 .2552096.086588.4261063.259766.5126953.095704.0501304.255207.0751953.478516.0751953.059245 0 .123046-.0011393.191406-.003418.06836-.0022786.148112-.0079752.239258-.0170898v.9707031c-.141277.0410158-.288248.0706379-.440918.0888672-.15267.0182292-.31787.0273437-.495606.0273437-.574221 0-.963866-.1469711-1.168945-.4409179s-.307617-.6756162-.307617-1.1450196v-4.84667965h-.991211v-1.00488281h.991211zm3.643555 2.078125h1.250976v7.28710938h-1.250976zm0-2.75488281h1.250976v1.39453125h-1.250976zm3.711914 2.72070313 1.955078 5.96093746 2.043945-5.96093746h1.34668l-2.761719 7.32128906h-1.3125l-2.700195-7.32128906zm9.447265-.1640625c.519534 0 1.02311.12190633 1.510742.36572265.487633.24381633.859049.55940562 1.114258.94677735.246095.36914247.410156.79980222.492188 1.29199218.072917.33724127.109375.87499631.109375 1.61328128h-5.366211c.022786.7428422.19824 1.3387022.526367 1.7875976.328127.4488955.83626.6733399 1.524414.6733399.642581 0 1.155272-.211912 1.538086-.6357422.218751-.246095.373697-.5309229.464844-.8544922h1.209961c-.031902.2688816-.137857.5685205-.317871.8989258s-.381672.6004221-.604981.8100586c-.3737.3645851-.83626.6106764-1.387695.7382812-.296226.0729171-.631183.109375-1.004883.109375-.911463 0-1.683916-.3315396-2.317383-.9946289-.633467-.6630892-.950195-1.5916281-.950195-2.7856445 0-1.17578714.319007-2.1305302.957031-2.86425782.638024-.73372763 1.472-1.10058594 2.501953-1.10058594zm1.961914 3.24023437c-.05013-.53320579-.16634-.9593083-.348633-1.27832031-.337241-.59245088-.900061-.88867188-1.688476-.88867188-.565107 0-1.039061.20393677-1.421875.61181641s-.585612.92626639-.608399 1.55517578zm6.911133-5.12011719h1.244141v2.04394532h1.168945v1.00488281h-1.168945v4.77832035c0 .2552096.086587.4261063.259765.5126953.095704.0501304.255208.0751953.478516.0751953.059245 0 .123047-.0011393.191406-.003418.06836-.0022786.148112-.0079752.239258-.0170898v.9707031c-.141277.0410158-.288248.0706379-.440918.0888672-.15267.0182292-.31787.0273437-.495605.0273437-.574222 0-.963867-.1469711-1.168946-.4409179s-.307617-.6756162-.307617-1.1450196v-4.84667965h-.991211v-1.00488281h.991211zm6.548828 8.57226558c.81576 0 1.375161-.3087534 1.678223-.9262695.303061-.6175161.45459-1.3045209.45459-2.0610351 0-.68359721-.109374-1.23958123-.328125-1.66796879-.346356-.67448254-.943355-1.01171875-1.791016-1.01171875-.751957 0-1.298826.28710651-1.640625.86132813-.341798.57422162-.512695 1.26692302-.512695 2.07812501 0 .7793008.170897 1.4287083.512695 1.9482422.341799.5195338.884111.7792968 1.626953.7792968zm.047852-6.74023432c.943364 0 1.740882.31444998 2.392578.94335937s.977539 1.55403035.977539 2.77539065c0 1.1803444-.287107 2.1555951-.861328 2.9257812-.574222.7701862-1.465163 1.1552735-2.672852 1.1552735-1.007166 0-1.806963-.3406542-2.399414-1.0219727s-.888672-1.5961857-.888672-2.7446289c0-1.2304749.312172-2.21028281.936524-2.93945312.624352-.72917032 1.462885-1.09375 2.515625-1.09375zm8.96875-1.83203126h1.24414v2.04394532h1.168946v1.00488281h-1.168946v4.77832035c0 .2552096.086588.4261063.259766.5126953.095704.0501304.255207.0751953.478516.0751953.059245 0 .123046-.0011393.191406-.003418.06836-.0022786.148111-.0079752.239258-.0170898v.9707031c-.141277.0410158-.288248.0706379-.440918.0888672-.15267.0182292-.31787.0273437-.495606.0273437-.574221 0-.963866-.1469711-1.168945-.4409179s-.307617-.6756162-.307617-1.1450196v-4.84667965h-.991211v-1.00488281h.991211zm3.643554-.7109375h1.230469v3.74609376c.291668-.36914248.55371-.6289055.786133-.77929688.396486-.25976692.890948-.38964844 1.483398-.38964844 1.061855 0 1.7819.37141556 2.160157 1.11425782.205079.40560098.307617.96842087.307617 1.68847656v4.69628906h-1.264649v-4.61425781c0-.53776311-.068358-.9319649-.205078-1.18261719-.223308-.40104367-.642575-.6015625-1.257812-.6015625-.510419 0-.97298.17545397-1.387695.52636719-.414716.35091321-.622071 1.01399252-.622071 1.98925781v3.8828125h-1.230469zm10.834961 2.59082032c.519534 0 1.02311.12190633 1.510743.36572265.487632.24381633.859048.55940562 1.114257.94677735.246095.36914247.410156.79980222.492188 1.29199218.072917.33724127.109375.87499631.109375 1.61328128h-5.366211c.022787.7428422.198241 1.3387022.526367 1.7875976.328127.4488955.83626.6733399 1.524414.6733399.642582 0 1.155272-.211912 1.538086-.6357422.218751-.246095.373698-.5309229.464844-.8544922h1.209961c-.031901.2688816-.137857.5685205-.317871.8989258s-.381672.6004221-.604981.8100586c-.373699.3645851-.83626.6106764-1.387695.7382812-.296225.0729171-.631183.109375-1.004883.109375-.911463 0-1.683916-.3315396-2.317383-.9946289-.633466-.6630892-.950195-1.5916281-.950195-2.7856445 0-1.17578714.319007-2.1305302.957031-2.86425782.638024-.73372763 1.472-1.10058594 2.501953-1.10058594zm1.961914 3.24023437c-.05013-.53320579-.16634-.9593083-.348632-1.27832031-.337242-.59245088-.900061-.88867188-1.688477-.88867188-.565107 0-1.03906.20393677-1.421875.61181641-.382814.40787964-.585612.92626639-.608398 1.55517578zm7.266602-3.07617187 1.955078 5.96093746 2.043945-5.96093746h1.34668l-2.761719 7.32128906h-1.3125l-2.700195-7.32128906zm6.398438.03417968h1.250976v7.28710938h-1.250976zm0-2.75488281h1.250976v1.39453125h-1.250976zm6.159179 2.55664063c.519534 0 1.02311.12190633 1.510742.36572265.487633.24381633.859049.55940562 1.114258.94677735.246095.36914247.410156.79980222.492188 1.29199218.072917.33724127.109375.87499631.109375 1.61328128h-5.366211c.022786.7428422.19824 1.3387022.526367 1.7875976.328127.4488955.83626.6733399 1.524414.6733399.642581 0 1.155272-.211912 1.538086-.6357422.218751-.246095.373697-.5309229.464844-.8544922h1.209961c-.031902.2688816-.137857.5685205-.317871.8989258s-.381672.6004221-.604981.8100586c-.3737.3645851-.83626.6106764-1.387695.7382812-.296226.0729171-.631183.109375-1.004883.109375-.911463 0-1.683916-.3315396-2.317383-.9946289-.633467-.6630892-.950195-1.5916281-.950195-2.7856445 0-1.17578714.319007-2.1305302.957031-2.86425782.638024-.73372763 1.472-1.10058594 2.501953-1.10058594zm1.961914 3.24023437c-.05013-.53320579-.16634-.9593083-.348633-1.27832031-.337241-.59245088-.900061-.88867188-1.688476-.88867188-.565107 0-1.039061.20393677-1.421875.61181641s-.585612.92626639-.608399 1.55517578zm3.342774-3.07617187 1.408203 5.76953126 1.428711-5.76953126h1.380859l1.435547 5.73535156 1.49707-5.73535156h1.230469l-2.125976 7.32128906h-1.278321l-1.490234-5.66699219-1.442383 5.66699219h-1.27832l-2.112305-7.32128906zm12.632812 6.49414066c.574222 0 1.051593-.2403948 1.432129-.7211914.380536-.4807967.570801-1.1997023.570801-2.1567383 0-.58333628-.084309-1.08463335-.25293-1.50390628-.319012-.80664465-.902339-1.20996093-1.75-1.20996093-.852218 0-1.435545.42610251-1.75 1.27832031-.16862.45573145-.252929 1.0345017-.252929 1.7363281 0 .565107.084309 1.0458965.252929 1.4423828.319012.7565142.90234 1.1347657 1.75 1.1347657zm-3.185547-6.45996098h1.196289v.97070313c.246095-.33268396.514973-.59016836.806641-.77246094.414716-.27343886.902341-.41015625 1.462891-.41015625.829431 0 1.533525.31786792 2.112304.95361328.578779.63574537.868164 1.54377665.868164 2.72412106 0 1.5950601-.416988 2.7343716-1.250976 3.4179688-.528649.4329449-1.143877.6494141-1.845703.6494141-.551435 0-1.013996-.1207671-1.387696-.3623047-.218751-.1367195-.462563-.3714176-.731445-.7041016v3.7392578h-1.230469zm10.78711 6.49414058c.815759 0 1.375161-.3087534 1.678222-.9262695.303062-.6175161.45459-1.3045209.45459-2.0610351 0-.68359721-.109374-1.23958123-.328125-1.66796879-.346356-.67448254-.943355-1.01171875-1.791015-1.01171875-.751957 0-1.298827.28710651-1.640625.86132813-.341799.57422162-.512696 1.26692302-.512696 2.07812501 0 .7793008.170897 1.4287083.512696 1.9482422.341798.5195338.88411.7792968 1.626953.7792968zm.047851-6.74023432c.943364 0 1.740882.31444998 2.392578.94335937s.977539 1.55403035.977539 2.77539065c0 1.1803444-.287106 2.1555951-.861328 2.9257812-.574221.7701862-1.465163 1.1552735-2.672851 1.1552735-1.007167 0-1.806963-.3406542-2.399414-1.0219727s-.888672-1.5961857-.888672-2.7446289c0-1.2304749.312171-2.21028281.936523-2.93945312.624352-.72917032 1.462886-1.09375 2.515625-1.09375zm4.867188.21191406h1.168945v1.26464844c.095704-.24609499.330402-.54573392.704102-.89892579.373699-.35319187.804359-.52978515 1.291992-.52978515.022786 0 .061523.00227862.116211.00683594.054688.00455731.148111.0136718.280273.02734374v1.29882813c-.072917-.01367194-.140136-.02278644-.20166-.02734375s-.128743-.00683594-.20166-.00683594c-.619795 0-1.096027.19937952-1.428711.59814453-.332684.39876502-.499023.85790756-.499023 1.37744141v4.2109375h-1.230469zm4.874023-2.04394532h1.244141v2.04394532h1.168945v1.00488281h-1.168945v4.77832035c0 .2552096.086588.4261063.259765.5126953.095704.0501304.255208.0751953.478516.0751953.059245 0 .123047-.0011393.191406-.003418.06836-.0022786.148112-.0079752.239258-.0170898v.9707031c-.141277.0410158-.288248.0706379-.440918.0888672-.15267.0182292-.31787.0273437-.495605.0273437-.574222 0-.963866-.1469711-1.168946-.4409179-.205079-.2939468-.307617-.6756162-.307617-1.1450196v-4.84667965h-.991211v-1.00488281h.991211z"/><path id="c" d="m1.5204975 4.63476562h1.24414062v2.04394532h1.16894532v1.00488281h-1.16894532v4.77832035c0 .2552096.08658768.4261063.25976563.5126953.0957036.0501304.25520722.0751953.47851562.0751953.05924509 0 .12304654-.0011393.19140625-.003418.06835972-.0022786.14811153-.0079752.23925782-.0170898v.9707031c-.14127675.0410158-.28824794.0706379-.44091797.0888672-.15267004.0182292-.31787021.0273437-.49560547.0273437-.57422162 0-.96386616-.1469711-1.16894531-.4409179s-.30761719-.6756162-.30761719-1.1450196v-4.84667965h-.99121094v-1.00488281h.99121094zm8.21679687 2.04394532h1.36035153c-.1731779.46940339-.5582652 1.54035622-1.1552734 3.21289062-.44661682 1.25781884-.820311 2.28319914-1.12109375 3.07617184-.71094105 1.868499-1.21223813 3.0078105-1.50390625 3.4179688-.29166813.4101583-.7929652.6152344-1.50390625.6152344-.17317795 0-.3064774-.0068359-.39990234-.0205078-.09342495-.013672-.20849541-.0387368-.34521485-.0751954v-1.1210937c.21419378.0592451.36914015.095703.46484375.109375.09570361.0136719.18001266.0205078.25292969.0205078.22786572 0 .39534452-.0375973.50244141-.112793s.1971025-.1674799.27001953-.2768554c.02278657-.0364586.104817-.2233056.24609375-.5605469s.24381478-.5878898.30761718-.7519531l-2.70703125-7.53320316h1.39453125l1.96191407 5.96093746zm5.51660153 6.49414066c.5742217 0 1.0515932-.2403948 1.4321289-.7211914.3805358-.4807967.5708008-1.1997023.5708008-2.1567383 0-.58333628-.084309-1.08463335-.2529297-1.50390628-.319012-.80664465-.9023395-1.20996093-1.75-1.20996093-.8522178 0-1.4355453.42610251-1.75 1.27832031-.1686206.45573145-.2529297 1.0345017-.2529297 1.7363281 0 .565107.0843091 1.0458965.2529297 1.4423828.319012.7565142.9023395 1.1347657 1.75 1.1347657zm-3.1855468-6.45996098h1.196289v.97070313c.246095-.33268396.5149725-.59016836.8066406-.77246094.4147157-.27343886.902341-.41015625 1.4628907-.41015625.8294312 0 1.5335257.31786792 2.1123047.95361328.5787789.63574537.868164 1.54377665.868164 2.72412106 0 1.5950601-.416988 2.7343716-1.2509765 3.4179688-.5286485.4329449-1.1438767.6494141-1.8457032.6494141-.551435 0-1.0139955-.1207671-1.3876953-.3623047-.2187511-.1367195-.4625637-.3714176-.7314453-.7041016v3.7392578h-1.2304687zm10.930664-.19824218c.5195339 0 1.0231096.12190633 1.5107422.36572265.4876327.24381633.8590482.55940562 1.1142578.94677735.246095.36914247.4101559.79980222.4921875 1.29199218.0729171.33724127.109375.87499631.109375 1.61328128h-5.3662109c.0227866.7428422.1982405 1.3387022.5263672 1.7875976.3281266.4488955.8362596.6733399 1.524414.6733399.6425814 0 1.1552716-.211912 1.538086-.6357422.2187511-.246095.3736974-.5309229.4648437-.8544922h1.209961c-.0319012.2688816-.1378572.5685205-.3178711.8989258-.180014.3304053-.3816721.6004221-.6049805.8100586-.3736998.3645851-.8362603.6106764-1.3876953.7382812-.2962255.0729171-.631183.109375-1.0048828.109375-.9114629 0-1.6839161-.3315396-2.3173828-.9946289-.6334667-.6630892-.9501954-1.5916281-.9501954-2.7856445 0-1.17578714.3190073-2.1305302.9570313-2.86425782.638024-.73372763 1.4720001-1.10058594 2.5019531-1.10058594zm1.9619141 3.24023437c-.0501305-.53320579-.1663402-.9593083-.3486328-1.27832031-.3372413-.59245088-.9000612-.88867188-1.6884766-.88867188-.565107 0-1.0390606.20393677-1.421875.61181641s-.5856119.92626639-.6083984 1.55517578zm6.665039-3.04199219h1.2509766v7.28710938h-1.2509766zm0-2.75488281h1.2509766v1.39453125h-1.2509766zm3.8417969 7.74511719c.0364585.4101583.1389966.7246083.3076172.9433594.3098974.3964863.8476524.5947265 1.6132813.5947265.4557314 0 .8567691-.0991201 1.203125-.2973632.3463559-.1982432.5195312-.504718.5195312-.9194336 0-.3144547-.138996-.5537102-.4169922-.7177735-.1777352-.1002609-.5286432-.2164707-1.0527344-.3486328l-.977539-.2460937c-.6243521-.1549487-1.0846339-.3281241-1.3808594-.5195313-.5286485-.33268394-.7929687-.7929658-.7929687-1.38085936 0-.6927118.2495092-1.25325307.7485351-1.68164063.499026-.42838756 1.1700804-.64257812 2.0131836-.64257812 1.1028701 0 1.8981096.32356447 2.3857422.97070312.3053401.4101583.4534506.85221117.4443359 1.32617188h-1.1621093c-.0227866-.27799618-.1207674-.53092334-.2939454-.75878907-.2825534-.32356932-.7724574-.48535156-1.4697265-.48535156-.4648461 0-.8168933.0888663-1.0561524.26660156-.239259.17773527-.3588867.41243344-.3588867.70410157 0 .31901201.157225.57421779.4716797.765625.1822926.11393286.4511701.21419227.8066406.30078125l.8134766.19824218c.884119.21419378 1.476561.42154848 1.7773437.62207028.4785181.3144547.7177735.8089159.7177735 1.4833985 0 .6516959-.2472306 1.2145158-.7416992 1.6884765s-1.2475536.7109375-2.2592774.7109375c-1.0891981 0-1.860512-.2472306-2.3139648-.7416992s-.6961262-1.1062789-.7280274-1.8354492zm10.8896485 0c.0364585.4101583.1389965.7246083.3076171.9433594.3098974.3964863.8476525.5947265 1.6132813.5947265.4557314 0 .8567691-.0991201 1.203125-.2973632.3463559-.1982432.5195312-.504718.5195312-.9194336 0-.3144547-.138996-.5537102-.4169921-.7177735-.1777353-.1002609-.5286433-.2164707-1.0527344-.3486328l-.9775391-.2460937c-.6243521-.1549487-1.0846339-.3281241-1.3808594-.5195313-.5286484-.33268394-.7929687-.7929658-.7929687-1.38085936 0-.6927118.2495092-1.25325307.7485352-1.68164063.4990259-.42838756 1.1700804-.64257812 2.0131835-.64257812 1.1028701 0 1.8981096.32356447 2.3857422.97070312.3053401.4101583.4534506.85221117.444336 1.32617188h-1.1621094c-.0227866-.27799618-.1207674-.53092334-.2939453-.75878907-.2825535-.32356932-.7724575-.48535156-1.4697266-.48535156-.464846 0-.8168933.0888663-1.0561523.26660156-.239259.17773527-.3588867.41243344-.3588867.70410157 0 .31901201.157225.57421779.4716796.765625.1822926.11393286.4511701.21419227.8066407.30078125l.8134765.19824218c.884119.21419378 1.476561.42154848 1.7773438.62207028.478518.3144547.7177734.8089159.7177734 1.4833985 0 .6516959-.2472306 1.2145158-.7416992 1.6884765s-1.2475535.7109375-2.2592773.7109375c-1.0891982 0-1.8605121-.2472306-2.3139649-.7416992s-.6961261-1.1062789-.7280273-1.8354492zm6.5146484-7.06835938h1.2441406v2.04394532h1.1689453v1.00488281h-1.1689453v4.77832035c0 .2552096.0865877.4261063.2597656.5126953.0957037.0501304.2552073.0751953.4785157.0751953.0592451 0 .1230465-.0011393.1914062-.003418.0683597-.0022786.1481115-.0079752.2392578-.0170898v.9707031c-.1412767.0410158-.2882479.0706379-.4409179.0888672-.1526701.0182292-.3178702.0273437-.4956055.0273437-.5742216 0-.9638662-.1469711-1.1689453-.4409179-.2050792-.2939468-.3076172-.6756162-.3076172-1.1450196v-4.84667965h-.9912109v-1.00488281h.9912109zm4.5869141 7.41699218c0 .3554705.1298815.6357412.3896484.8408203.2597669.2050792.567381.3076172.9228516.3076172.4329448 0 .8522115-.1002594 1.2578125-.3007812.6835971-.332684 1.0253906-.8772749 1.0253906-1.6337891v-.9912109c-.1503914.0957036-.3440743.1754554-.5810547.2392578s-.4693999.1093748-.6972656.1367187l-.7451172.0957032c-.4466168.059245-.7815744.1526686-1.0048828.2802734-.3782571.2141938-.5673828.5559872-.5673828 1.0253906zm2.9804687-2.48828124c.2825535-.03645851.4716792-.15494691.5673828-.35546875.0546878-.10937554.0820313-.26660053.0820313-.47167969 0-.41927292-.1492498-.7234691-.4477539-.91259765s-.7257459-.28369141-1.2817383-.28369141c-.6425814 0-1.098306.17317535-1.3671875.51953125-.1503914.19140721-.2483722.47623509-.2939453.85449219h-1.1484375c.0227865-.90234826.3155896-1.53010891.8784179-1.88330078.5628284-.35319187 1.2156539-.52978516 1.9584961-.52978516.8613325 0 1.5608697.16406086 2.0986328.4921875.5332058.32812664.7998047.83853821.7998047 1.53125v4.21777344c0 .1276048.0262042.2301428.0786133.3076172.0524091.0774743.1629224.1162109.331543.1162109.0546878 0 .1162106-.0034179.1845703-.0102539s.1412757-.0170898.21875-.0307617v.9091797c-.1914072.0546878-.3372391.0888671-.4375.1025391-.1002609.0136719-.2369783.0205078-.4101563.0205078-.4238302 0-.7314443-.1503892-.9228515-.4511719-.1002609-.159506-.1708982-.3850897-.2119141-.6767578-.2506523.3281266-.6106747.6129545-1.0800781.8544922-.4694034.2415376-.9866508.3623047-1.5517578.3623047-.6790399 0-1.2338846-.2062154-1.6645508-.6186524s-.6459961-.9285451-.6459961-1.5483398c0-.6790399.211912-1.2054018.6357422-1.5791016s.9798143-.60384071 1.6679687-.69042969zm4.1083984-4.92871094h1.2441407v2.04394532h1.1689453v1.00488281h-1.1689453v4.77832035c0 .2552096.0865877.4261063.2597656.5126953.0957036.0501304.2552072.0751953.4785156.0751953.0592451 0 .1230466-.0011393.1914063-.003418.0683597-.0022786.1481115-.0079752.2392578-.0170898v.9707031c-.1412768.0410158-.2882479.0706379-.440918.0888672-.15267.0182292-.3178702.0273437-.4956055.0273437-.5742216 0-.9638661-.1469711-1.1689453-.4409179-.2050791-.2939468-.3076172-.6756162-.3076172-1.1450196v-4.84667965h-.9912109v-1.00488281h.9912109zm3.6435547 2.078125h1.2509766v7.28710938h-1.2509766zm0-2.75488281h1.2509766v1.39453125h-1.2509766zm5.9335938 2.50878907c.8248739 0 1.4959284.20051882 2.0131836.6015625.5172552.40104367.8282872 1.09146645.9331054 2.07128906h-1.196289c-.072917-.45117413-.2392565-.82600762-.4990235-1.12451172-.2597669-.2985041-.6767549-.44775391-1.2509765-.44775391-.7838581 0-1.3443994.38280867-1.6816406 1.1484375-.2187511.49674728-.328125 1.10969688-.328125 1.83886719 0 .7337276.1549463 1.3512345.4648437 1.8525391s.7975227.7519531 1.4628906.7519531c.5104193 0 .9148748-.1560857 1.2133789-.4682617.2985041-.3121761.5047195-.7394179.6186524-1.2817383h1.196289c-.1367194.970708-.4785128 1.680499-1.0253906 2.1293945-.5468777.4488955-1.246415.6733399-2.0986328.6733399-.957036 0-1.7203747-.3497687-2.2900391-1.0493164-.5696643-.6995478-.8544921-1.5733998-.8544921-2.6215821 0-1.28516265.3121713-2.28547817.9365234-3.00097654s1.4195915-1.07324218 2.3857422-1.07324218zm9.0097656 5.58496092c0 .3554705.1298815.6357412.3896484.8408203.259767.2050792.5673811.3076172.9228516.3076172.4329449 0 .8522115-.1002594 1.2578125-.3007812.6835972-.332684 1.0253906-.8772749 1.0253906-1.6337891v-.9912109c-.1503913.0957036-.3440743.1754554-.5810547.2392578-.2369803.0638024-.4693999.1093748-.6972656.1367187l-.7451172.0957032c-.4466168.059245-.7815744.1526686-1.0048828.2802734-.3782571.2141938-.5673828.5559872-.5673828 1.0253906zm2.9804688-2.48828124c.2825535-.03645851.4716792-.15494691.5673828-.35546875.0546877-.10937554.0820312-.26660053.0820312-.47167969 0-.41927292-.1492498-.7234691-.4477539-.91259765s-.7257459-.28369141-1.2817383-.28369141c-.6425813 0-1.0983059.17317535-1.3671875.51953125-.1503913.19140721-.2483721.47623509-.2939453.85449219h-1.1484375c.0227866-.90234826.3155897-1.53010891.878418-1.88330078s1.2156538-.52978516 1.9584961-.52978516c.8613324 0 1.5608697.16406086 2.0986328.4921875.5332058.32812664.7998047.83853821.7998047 1.53125v4.21777344c0 .1276048.0262042.2301428.0786133.3076172.0524091.0774743.1629223.1162109.3315429.1162109.0546878 0 .1162106-.0034179.1845703-.0102539.0683598-.006836.1412757-.0170898.21875-.0307617v.9091797c-.1914072.0546878-.337239.0888671-.4375.1025391-.1002609.0136719-.2369783.0205078-.4101562.0205078-.4238302 0-.7314444-.1503892-.9228516-.4511719-.1002609-.159506-.1708982-.3850897-.211914-.6767578-.2506523.3281266-.6106748.6129545-1.0800782.8544922-.4694033.2415376-.9866508.3623047-1.5517578.3623047-.6790398 0-1.2338845-.2062154-1.6645507-.6186524-.4306663-.412437-.6459961-.9285451-.6459961-1.5483398 0-.6790399.2119119-1.2054018.6357421-1.5791016.4238303-.3736998.9798143-.60384071 1.6679688-.69042969zm3.7666015-5.63964844h1.1962891v3.64355469c.2688815-.35091321.5901674-.61865142.9638672-.80322265.3736998-.18457124.7792947-.27685547 1.2167968-.27685547.9114629 0 1.6508761.31331067 2.2182618.9399414.5673856.62663074.8510742 1.55061239.8510742 2.77197271 0 1.1575578-.2802706 2.1191367-.8408203 2.8847656-.5605497.7656288-1.3375602 1.1484375-2.3310547 1.1484375-.5559924 0-1.0253887-.1344388-1.4082031-.4033203-.2278658-.159506-.4716784-.4147118-.7314454-.765625v.9365234h-1.1347656zm3.1992188 9.22167968c.6653679 0 1.163247-.2643203 1.4936523-.7929687.3304053-.5286485.4956055-1.2259072.4956055-2.0917969 0-.77018616-.1652002-1.40820061-.4956055-1.91406251-.3304053-.50586191-.8168913-.75878907-1.4594726-.75878907-.5605497 0-1.051593.2073547-1.4731446.62207032-.4215516.41471561-.6323242 1.09830253-.6323242 2.05078126 0 .6881545.0865877 1.2464171.2597656 1.6748047.3235694.8066446.9274045 1.2099609 1.8115235 1.2099609zm7.5878906.0615234c.815759 0 1.375161-.3087534 1.678223-.9262695.303061-.6175161.454589-1.3045209.454589-2.0610351 0-.68359721-.109373-1.23958123-.328125-1.66796879-.346355-.67448254-.943355-1.01171875-1.791015-1.01171875-.751957 0-1.2988265.28710651-1.6406251.86132813s-.5126953 1.26692302-.5126953 2.07812501c0 .7793008.1708967 1.4287083.5126953 1.9482422.3417986.5195338.8841108.7792968 1.6269531.7792968zm.047852-6.74023432c.943364 0 1.740882.31444998 2.392578.94335937s.977539 1.55403035.977539 2.77539065c0 1.1803444-.287107 2.1555951-.861328 2.9257812-.574222.7701862-1.465164 1.1552735-2.672852 1.1552735-1.0071664 0-1.8069631-.3406542-2.399414-1.0219727s-.8886719-1.5961857-.8886719-2.7446289c0-1.2304749.3121714-2.21028281.9365235-2.93945312.624352-.72917032 1.4628853-1.09375 2.5156254-1.09375zm5.43457.21191406 1.955078 5.96093746 2.043945-5.96093746h1.34668l-2.761719 7.32128906h-1.3125l-2.700195-7.32128906zm9.447265-.1640625c.519534 0 1.02311.12190633 1.510743.36572265.487632.24381633.859048.55940562 1.114257.94677735.246095.36914247.410156.79980222.492188 1.29199218.072917.33724127.109375.87499631.109375 1.61328128h-5.366211c.022787.7428422.198241 1.3387022.526367 1.7875976.328127.4488955.83626.6733399 1.524414.6733399.642582 0 1.155272-.211912 1.538086-.6357422.218751-.246095.373698-.5309229.464844-.8544922h1.209961c-.031901.2688816-.137857.5685205-.317871.8989258s-.381672.6004221-.604981.8100586c-.373699.3645851-.83626.6106764-1.387695.7382812-.296225.0729171-.631183.109375-1.004883.109375-.911463 0-1.683916-.3315396-2.317383-.9946289-.633466-.6630892-.950195-1.5916281-.950195-2.7856445 0-1.17578714.319007-2.1305302.957031-2.86425782.638024-.73372763 1.472-1.10058594 2.501953-1.10058594zm1.961915 3.24023437c-.050131-.53320579-.166341-.9593083-.348633-1.27832031-.337242-.59245088-.900061-.88867188-1.688477-.88867188-.565107 0-1.03906.20393677-1.421875.61181641-.382814.40787964-.585612.92626639-.608398 1.55517578zm6.911132-5.12011719h1.244141v2.04394532h1.168945v1.00488281h-1.168945v4.77832035c0 .2552096.086588.4261063.259766.5126953.095703.0501304.255207.0751953.478515.0751953.059245 0 .123047-.0011393.191406-.003418.06836-.0022786.148112-.0079752.239258-.0170898v.9707031c-.141276.0410158-.288248.0706379-.440918.0888672-.15267.0182292-.31787.0273437-.495605.0273437-.574222 0-.963866-.1469711-1.168945-.4409179-.20508-.2939468-.307618-.6756162-.307618-1.1450196v-4.84667965h-.991211v-1.00488281h.991211zm3.643555-.7109375h1.230469v3.74609376c.291668-.36914248.55371-.6289055.786133-.77929688.396486-.25976692.890947-.38964844 1.483398-.38964844 1.061854 0 1.781899.37141556 2.160156 1.11425782.205079.40560098.307617.96842087.307617 1.68847656v4.69628906h-1.264648v-4.61425781c0-.53776311-.068359-.9319649-.205078-1.18261719-.223308-.40104367-.642575-.6015625-1.257813-.6015625-.510419 0-.972979.17545397-1.387695.52636719-.414715.35091321-.62207 1.01399252-.62207 1.98925781v3.8828125h-1.230469zm7.786133 2.7890625h1.250976v7.28710938h-1.250976zm0-2.75488281h1.250976v1.39453125h-1.250976zm3.841797 7.74511719c.036458.4101583.138996.7246083.307617.9433594.309897.3964863.847652.5947265 1.613281.5947265.455732 0 .856769-.0991201 1.203125-.2973632.346356-.1982432.519531-.504718.519531-.9194336 0-.3144547-.138996-.5537102-.416992-.7177735-.177735-.1002609-.528643-.2164707-1.052734-.3486328l-.977539-.2460937c-.624352-.1549487-1.084634-.3281241-1.38086-.5195313-.528648-.33268394-.792968-.7929658-.792968-1.38085936 0-.6927118.249509-1.25325307.748535-1.68164063s1.17008-.64257812 2.013183-.64257812c1.102871 0 1.89811.32356447 2.385743.97070312.30534.4101583.45345.85221117.444336 1.32617188h-1.16211c-.022786-.27799618-.120767-.53092334-.293945-.75878907-.282554-.32356932-.772458-.48535156-1.469727-.48535156-.464846 0-.816893.0888663-1.056152.26660156-.239259.17773527-.358887.41243344-.358887.70410157 0 .31901201.157225.57421779.47168.765625.182293.11393286.45117.21419227.806641.30078125l.813476.19824218c.884119.21419378 1.476561.42154848 1.777344.62207028.478518.3144547.717773.8089159.717773 1.4833985 0 .6516959-.24723 1.2145158-.741699 1.6884765s-1.247553.7109375-2.259277.7109375c-1.089198 0-1.860512-.2472306-2.313965-.7416992s-.696126-1.1062789-.728027-1.8354492zm13.248047 1.4697266c.574221 0 1.051593-.2403948 1.432129-.7211914.380535-.4807967.5708-1.1997023.5708-2.1567383 0-.58333628-.084309-1.08463335-.252929-1.50390628-.319012-.80664465-.90234-1.20996093-1.75-1.20996093-.852218 0-1.435546.42610251-1.75 1.27832031-.168621.45573145-.25293 1.0345017-.25293 1.7363281 0 .565107.084309 1.0458965.25293 1.4423828.319012.7565142.902339 1.1347657 1.75 1.1347657zm-3.185547-6.45996098h1.196289v.97070313c.246095-.33268396.514972-.59016836.80664-.77246094.414716-.27343886.902341-.41015625 1.462891-.41015625.829431 0 1.533526.31786792 2.112305.95361328.578779.63574537.868164 1.54377665.868164 2.72412106 0 1.5950601-.416988 2.7343716-1.250977 3.4179688-.528648.4329449-1.143876.6494141-1.845703.6494141-.551435 0-1.013995-.1207671-1.387695-.3623047-.218751-.1367195-.462564-.3714176-.731446-.7041016v3.7392578h-1.230468zm10.787109 6.49414058c.815759 0 1.375161-.3087534 1.678223-.9262695.303061-.6175161.45459-1.3045209.45459-2.0610351 0-.68359721-.109374-1.23958123-.328125-1.66796879-.346356-.67448254-.943356-1.01171875-1.791016-1.01171875-.751957 0-1.298826.28710651-1.640625.86132813s-.512695 1.26692302-.512695 2.07812501c0 .7793008.170896 1.4287083.512695 1.9482422.341799.5195338.884111.7792968 1.626953.7792968zm.047852-6.74023432c.943364 0 1.740882.31444998 2.392578.94335937s.977539 1.55403035.977539 2.77539065c0 1.1803444-.287107 2.1555951-.861328 2.9257812-.574222.7701862-1.465163 1.1552735-2.672852 1.1552735-1.007166 0-1.806963-.3406542-2.399414-1.0219727s-.888672-1.5961857-.888672-2.7446289c0-1.2304749.312172-2.21028281.936524-2.93945312.624352-.72917032 1.462885-1.09375 2.515625-1.09375zm4.833007.24609374h1.250977v7.28710938h-1.250977zm0-2.75488281h1.250977v1.39453125h-1.250977zm3.110352 2.72070313h1.168945v1.0390625c.346356-.42838756.713215-.73600167 1.100586-.92285156.387372-.1868499.818032-.28027344 1.291992-.28027344 1.039068 0 1.740884.36230106 2.105469 1.08691406.200522.39648636.300781.9638635.300781 1.70214844v4.69628906h-1.250976v-4.61425781c0-.44661682-.06608-.80663926-.198242-1.08007813-.218751-.45573144-.615232-.68359375-1.189453-.68359375-.291669 0-.530924.0296221-.717774.08886719-.337241.10026092-.633462.30077975-.888672.6015625-.205079.24153767-.338378.49104689-.399902.74853516-.061524.25748826-.092285.62548588-.092285 1.10400394v3.8349609h-1.230469zm8.032227-2.04394532h1.24414v2.04394532h1.168946v1.00488281h-1.168946v4.77832035c0 .2552096.086588.4261063.259766.5126953.095703.0501304.255207.0751953.478515.0751953.059246 0 .123047-.0011393.191407-.003418.068359-.0022786.148111-.0079752.239258-.0170898v.9707031c-.141277.0410158-.288248.0706379-.440918.0888672-.15267.0182292-.317871.0273437-.495606.0273437-.574221 0-.963866-.1469711-1.168945-.4409179s-.307617-.6756162-.307617-1.1450196v-4.84667965h-.991211v-1.00488281h.991211z"/><path id="d" d="m7.99804688 12.7089844-1.95996094-5.70410159-2.08300782 5.70410159zm-2.87402344-7.62011721h1.97753906l4.6845703 12.91113281h-1.91601561l-1.30957031-3.8671875h-5.10644532l-1.39746094 3.8671875h-1.79296874zm9.25488276 10.40625001c0 .4570335.1669906.8173815.5009766 1.0810547.3339861.2636732.7294899.3955078 1.1865234.3955078.5566435 0 1.0957006-.128905 1.6171876-.3867188.8789106-.4277365 1.3183593-1.1279248 1.3183593-2.1005859v-1.2744141c-.1933603.1230475-.4423813.2255856-.7470703.3076172-.304689.0820317-.6035141.1406248-.8964844.1757813l-.9580078.1230468c-.5742216.0761723-1.0048814.1962883-1.2919922.3603516-.4863305.275392-.7294922.7148407-.7294922 1.3183594zm3.8320313-3.1992188c.3632831-.0468752.6064447-.1992174.7294922-.4570312.0703128-.1406257.1054687-.3427721.1054687-.6064453 0-.5390652-.1918926-.9301746-.5756836-1.1733399-.3837909-.24316525-.9331019-.36474606-1.6479492-.36474606-.826176 0-1.4121076.22265402-1.7578125.66796876-.1933603.246095-.3193356.6123022-.3779297 1.0986328h-1.4765625c.0292971-1.1601621.4057581-1.96728289 1.1293946-2.42138672.7236364-.45410383 1.5629835-.68115234 2.5180664-.68115234 1.1074274 0 2.0068325.21093539 2.6982422.6328125.6855503.42187711 1.0283203 1.07812056 1.0283203 1.96874996v5.4228516c0 .1640633.033691.2958979.1010742.3955078.0673831.0996099.2094716.1494141.4262695.1494141.0703129 0 .1494136-.0043945.2373047-.0131836s.1816401-.0219726.28125-.0395508v1.1689453c-.246095.0703129-.4335931.1142577-.5625.1318359-.1289069.0175783-.3046864.0263672-.5273437.0263672-.5449246 0-.9404285-.1933574-1.1865235-.5800781-.1289069-.2050791-.2197263-.4951153-.2724609-.8701172-.3222672.4218771-.7851532.7880844-1.3886719 1.0986328-.6035186.3105485-1.268551.4658203-1.9951172.4658203-.8730512 0-1.586423-.265134-2.1401367-.7954101s-.8305664-1.1938437-.8305664-1.9907227c0-.8730512.2724582-1.5498022.8173828-2.0302734s1.2597612-.7763666 2.1445313-.8876953z"/><path id="e" d="m15.9960938 24.4179688-3.9199219-11.4082032-4.16601565 11.4082032zm-5.7480469-15.24023442h3.9550781l9.3691406 25.82226562h-3.8320312l-2.6191406-7.734375h-10.21289068l-2.79492187 7.734375h-3.5859375zm18.5097656 20.81250002c0 .914067.333981 1.634763 1.0019531 2.1621094.6679721.5273463 1.4589798.7910156 2.3730469.7910156 1.1132868 0 2.191401-.2578099 3.234375-.7734375 1.7578213-.8554731 2.6367187-2.2558497 2.6367187-4.2011719v-2.5488281c-.3867206.246095-.8847625.451171-1.4941406.6152343-.609378.1640634-1.2070283.2812497-1.7929687.3515626l-1.9160157.2460937c-1.1484432.1523445-2.0097627.3925765-2.5839843.7207031-.9726611.550784-1.4589844 1.4296815-1.4589844 2.6367188zm7.6640625-6.3984375c.7265661-.0937505 1.2128894-.3984349 1.4589844-.9140625.1406257-.2812514.2109375-.6855443.2109375-1.2128906 0-1.0781304-.3837852-1.8603492-1.1513672-2.3466797-.767582-.4863306-1.8662038-.7294922-3.2958985-.7294922-1.652352 0-2.8242152.445308-3.515625 1.3359375-.3867206.4921899-.6386712 1.2246045-.7558593 2.1972656h-2.953125c.058594-2.3203241.8115162-3.9345658 2.258789-4.8427734 1.4472729-.9082077 3.125967-1.3623047 5.0361329-1.3623047 2.2148548 0 4.0136649.4218708 5.3964843 1.265625 1.3711006.8437542 2.0566407 2.1562411 2.0566407 3.9375v10.8457031c0 .3281266.0673821.5917959.2021484.7910156.1347663.1992198.4189431.2988282.852539.2988282.1406258 0 .2988273-.008789.4746094-.0263672.1757822-.0175783.3632803-.0439452.5625-.0791016v2.3378906c-.4921899.1406257-.8671862.2285155-1.125.2636719s-.6093727.0527344-1.0546875.0527344c-1.0898492 0-1.8808569-.3867149-2.3730469-1.1601563-.2578137-.4101583-.4394525-.9902306-.5449218-1.7402344-.6445345.8437543-1.5703065 1.5761688-2.7773438 2.1972657-1.2070373.6210968-2.5371021.9316406-3.9902344.9316406-1.7461024 0-3.172846-.5302681-4.2802734-1.5908203s-1.6611328-2.3876874-1.6611328-3.9814453c0-1.7461025.5449164-3.0996046 1.6347656-4.0605469s2.5195224-1.5527333 4.2890625-1.7753906z"/><path id="f" d="m15.1074219 23.0058594-3.7021485-10.7744141-3.93457028 10.7744141zm-5.42871096-14.39355471h3.73535156l8.8486328 24.38769531h-3.6191406l-2.4736328-7.3046875h-9.64550784l-2.63964844 7.3046875h-3.38671874zm17.48144526 19.65625001c0 .8632856.3154266 1.5439428.9462891 2.0419922.6308625.4980493 1.3779254.7470703 2.2412109.7470703 1.0514376 0 2.0696566-.2434872 3.0546876-.7304688 1.6601645-.8079467 2.4902343-2.1305246 2.4902343-3.9677734v-2.4072266c-.3652362.2324231-.8356091.426106-1.4111328.5810547s-1.1399712.2656247-1.6933594.3320313l-1.8095703.2324218c-1.0846408.143881-1.8981092.3707667-2.4404297.6806641-.9186243.5201849-1.3779297 1.3502547-1.3779297 2.4902344zm7.2382813-6.0429688c.6862013-.0885421 1.1455067-.3762996 1.3779297-.8632812.1328132-.2656263.1992187-.6474585.1992187-1.1455078 0-1.0182343-.3624638-1.7569964-1.0874023-2.2163086s-1.7625258-.6889649-3.112793-.6889649c-1.5605547 0-2.6673144.4205687-3.3203125 1.2617188-.3652362.4648461-.6031895 1.1565709-.7138672 2.0751953h-2.7890625c.0553389-2.1914172.766432-3.7159788 2.1333008-4.5737305s2.9523022-1.2866211 4.7563477-1.2866211c2.0918073 0 3.7906835.3984336 5.0966797 1.1953125 1.2949283.796879 1.9423828 2.03645 1.9423828 3.71875v10.2431641c0 .3098974.0636387.5589183.1909179.7470703.1272793.188152.3956686.2822266.8051758.2822266.1328132 0 .2822258-.0083007.4482422-.0249024.1660165-.0166016.343098-.0415037.53125-.074707v2.2080078c-.4648461.1328132-.8190092.2158202-1.0625.2490234-.2434908.0332033-.5755187.0498047-.9960937.0498047-1.0293021 0-1.7763649-.3652307-2.241211-1.0957031-.2434908-.3873717-.4150385-.9352178-.5146484-1.6435547-.608727.796879-1.4830672 1.4886039-2.6230469 2.0751953-1.1399796.5865915-2.396152.8798828-3.7685547.8798828-1.6490968 0-2.9965768-.5008087-4.0424804-1.5024414-1.0459037-1.0016326-1.5688477-2.255038-1.5688477-3.7602539 0-1.6490967.5146433-2.9274043 1.5439453-3.8349609s2.3795489-1.4664703 4.0507813-1.6767578z"/><path id="g" d="m8.88671875 13.1210938-2.17773437-6.33789068-2.31445313 6.33789068zm-3.19335937-8.46679692h2.19726562l5.2050781 14.34570312h-2.1289062l-1.45507815-4.296875h-5.67382813l-1.55273437 4.296875h-1.9921875zm10.28320312 11.56250002c0 .507815.185545.9082016.5566406 1.2011719.3710956.2929702.8105444.4394531 1.3183594.4394531.6184927 0 1.217445-.1432278 1.796875-.4296875.9765674-.4752628 1.4648437-1.2532498 1.4648437-2.3339844v-1.4160156c-.2148448.1367194-.4915347.2506506-.8300781.3417968-.3385433.0911463-.6705713.1562499-.9960937.1953126l-1.0644532.1367187c-.638024.0846358-1.1165348.218098-1.4355468.4003906-.5403673.3059911-.8105469.7942675-.8105469 1.4648438zm4.2578125-3.5546875c.4036479-.0520836.6738274-.2213528.8105469-.5078125.0781254-.1562508.1171875-.3808579.1171875-.6738281 0-.5989614-.213214-1.0335273-.6396485-1.303711-.4264344-.27018363-1.0367798-.40527342-1.8310547-.40527342-.9179733 0-1.5690084.24739332-1.953125.74218752-.2148448.2734388-.3548173.6803358-.4199218 1.2207031h-1.640625c.0325522-1.2890689.4508423-2.18586987 1.2548828-2.69042969.8040405-.50455981 1.7366483-.75683593 2.7978516-.75683593 1.2304749 0 2.2298138.23437265 2.9980468.703125.7617226.46875234 1.1425782 1.19791172 1.1425782 2.18750002v6.0253906c0 .1822926.0374345.3287755.1123046.4394531.0748702.1106777.2327462.1660157.4736328.1660157.0781254 0 .1660152-.0048828.2636719-.0146485.0976568-.0097657.2018224-.024414.3125-.0439453v1.2988281c-.2734388.0781254-.4817701.1269531-.625.1464844s-.3385404.0292969-.5859375.0292969c-.6054718 0-1.0449205-.2148416-1.3183594-.6445313-.1432298-.2278657-.2441403-.5501281-.3027343-.9667969-.3580747.4687524-.8723925.8756494-1.5429688 1.2207032-.6705762.3450538-1.4095011.5175781-2.2167969.5175781-.9700569 0-1.7626922-.2945934-2.3779296-.8837891-.6152375-.5891956-.9228516-1.3264929-.9228516-2.211914 0-.970057.3027313-1.7220026.9082031-2.2558594s1.3997347-.8626296 2.3828125-.9863281z"/><path id="h" d="m9.77539062 14.5332031-2.39550781-6.97167966-2.54589843 6.97167966zm-3.51269531-9.31347654h2.41699219l5.7255859 15.78027344h-2.3417968l-1.600586-4.7265625h-6.24121091l-1.70800781 4.7265625h-2.19140625zm11.31152349 12.71875004c0 .5585965.2040995.9990218.6123046 1.321289.4082052.3222673.8915988.4833985 1.4501954.4833985.6803419 0 1.3391895-.1575505 1.9765624-.4726563 1.0742242-.5227891 1.6113282-1.3785748 1.6113282-2.5673828v-1.5576172c-.2363293.1503914-.5406883.2757157-.913086.3759766s-.7376284.1718748-1.0957031.2148437l-1.1708984.1503907c-.7018265.0930994-1.2281884.2399078-1.5791016.4404296-.594404.3365903-.8916015.8736943-.8916015 1.6113282zm4.6835937-3.9101563c.4440126-.0572919.7412102-.243488.8916016-.5585937.0859379-.1718759.1289062-.4189437.1289062-.741211 0-.6588574-.2345354-1.13688-.7036133-1.434082-.4690778-.297202-1.1404578-.4458008-2.0141601-.4458008-1.0097707 0-1.7259094.2721327-2.1484375.8164063-.2363293.3007827-.3902991.7483694-.4619141 1.3427734h-1.8046875c.0358075-1.4179758.4959266-2.4044569 1.3803711-2.9594727.8844445-.55501575 1.9103132-.83251949 3.0776367-.83251949 1.3535224 0 2.4527953.25780992 3.2978516.7734375.8378948.51562759 1.2568359 1.31770289 1.2568359 2.40624999v6.6279297c0 .2005218.041178.361653.1235352.4833984s.2560208.1826172.5209961.1826172c.0859379 0 .1826166-.005371.290039-.0161133.1074224-.0107422.2220046-.0268553.34375-.0483398v1.4287109c-.3007827.085938-.5299471.1396484-.6875.1611329-.1575528.0214844-.3723944.0322265-.6445312.0322265-.666019 0-1.1494126-.2363257-1.4501953-.7089844-.1575529-.2506523-.2685544-.6051409-.3330078-1.0634765-.3938822.5156276-.9596318.9632142-1.6972657 1.3427734s-1.5504513.569336-2.4384765.569336c-1.0670627 0-1.9389615-.3240528-2.6157227-.972168s-1.0151367-1.4591423-1.0151367-2.4331055c0-1.0670626.3330045-1.8942028.9990234-2.4814453.666019-.5872425 1.5397082-.9488925 2.6210938-1.0849609z"/><path id="i" d="m10.6640625 15.9453125-2.61328125-7.60546875-2.77734375 7.60546875zm-3.83203125-10.16015625h2.63671875l6.2460938 17.21484375h-2.5546876l-1.7460937-5.15625h-6.80859375l-1.86328125 5.15625h-2.390625zm12.33984375 13.87499995c0 .6093781.222654 1.089842.6679688 1.4414063.4453147.3515643.9726532.5273437 1.5820312.5273437.7421912 0 1.460934-.1718732 2.15625-.515625 1.1718809-.5703153 1.7578125-1.5038997 1.7578125-2.8007812v-1.6992188c-.2578138.1640634-.5898417.3007808-.9960937.4101563-.4062521.1093755-.8046856.1874998-1.1953126.234375l-1.2773437.1640625c-.7656288.101563-1.3398418.2617177-1.7226563.4804688-.6484407.3671893-.9726562.9531209-.9726562 1.7578124zm5.109375-4.265625c.4843774-.0625003.8085929-.2656232.9726562-.609375.0937505-.1875009.140625-.4570294.140625-.8085937 0-.7187536-.2558568-1.2402328-.7675781-1.5644531-.5117213-.3242204-1.2441358-.4863282-2.1972656-.4863282-1.101568 0-1.8828102.2968721-2.34375.890625-.2578138.3281267-.4257809.8164031-.5039063 1.4648438h-1.96875c.0390627-1.5468827.5410109-2.6230438 1.5058594-3.2285156.9648486-.6054718 2.083978-.9082032 3.3574219-.9082032 1.4765699 0 2.6757766.2812472 3.5976563.84375.914067.5625029 1.3710937 1.4374941 1.3710937 2.625v7.2304688c0 .2187511.0449214.3945306.1347656.5273438.0898442.1328131.2792955.1992187.5683594.1992187.0937505 0 .1992182-.0058593.3164063-.0175781.117188-.0117188.2421868-.0292968.375-.0527344v1.5585938c-.3281267.0937504-.5781242.1523436-.75.1757812-.1718759.0234376-.4062486.0351562-.703125.0351562-.7265662 0-1.2539047-.2578099-1.5820313-.7734374-.1718759-.2734389-.2929684-.6601538-.3632813-1.1601563-.4296896.5625028-1.0468709 1.0507792-1.8515624 1.4648437-.8046916.4140646-1.6914015.6210938-2.6601563.6210938-1.1640683 0-2.1152307-.3535121-2.8535156-1.0605469-.738285-.7070348-1.1074219-1.5917915-1.1074219-2.6542969 0-1.1640683.3632776-2.066403 1.0898438-2.7070312.7265661-.6406282 1.6796816-1.0351555 2.859375-1.1835938z"/><path id="j" d="m11.5527344 17.3574219-2.83105471-8.23925784-3.00878907 8.23925784zm-4.15136721-11.00683596h2.85644531l6.7666016 18.64941406h-2.7675782l-1.8916015-5.5859375h-7.37597659l-2.01855469 5.5859375h-2.58984374zm13.36816401 15.03124996c0 .6601596.2412086 1.1806622.7236329 1.5615235.4824242.3808613 1.0537076.571289 1.7138671.571289.8040405 0 1.5826786-.186196 2.3359376-.5585937 1.2695375-.6178416 1.9042968-1.6292248 1.9042968-3.0341797v-1.8408203c-.2792982.1777353-.6389952.3258457-1.0791015.4443359-.4401064.1184902-.8717427.2031248-1.2949219.2539063l-1.3837891.1777343c-.8294312.1100266-1.4514953.2835275-1.8662109.5205079-.7024775.3977884-1.053711 1.0325477-1.053711 1.9042968zm5.5351563-4.6210937c.5247422-.0677087.8759757-.2877586 1.0537109-.6601563.101563-.203126.1523438-.4951152.1523438-.8759765 0-.7786498-.2771782-1.3435855-.831543-1.6948242-.5543647-.3512388-1.3478138-.5268555-2.3803711-.5268555-1.1933653 0-2.039711.3216114-2.5390625.9648437-.2792982.3554706-.4612626.8844366-.5458984 1.5869141h-2.1328125c.0423179-1.6757896.586095-2.8416308 1.6313476-3.4975586 1.0452527-.6559278 2.2576429-.9838867 3.6372071-.9838867 1.5996173 0 2.898758.3046844 3.8974609.9140625.9902393.609378 1.4853516 1.5572852 1.4853516 2.84375v7.8330078c0 .2369804.0486649.4274081.1459961.5712891.0973312.1438809.30257.2158203.6157226.2158203.101563 0 .2158197-.0063476.3427735-.019043.1269537-.0126954.262369-.0317381.40625-.0571289v1.6884766c-.3554706.101563-.6263012.1650389-.8125.1904296-.1861989.0253908-.4401026.038086-.7617188.038086-.7871133 0-1.3583966-.2792941-1.7138672-.8378906-.1861988-.2962255-.3173824-.7151666-.3935547-1.256836-.4654971.6093781-1.1341102 1.1383441-2.0058593 1.5869141-.8717492.4485699-1.8323516.6728515-2.881836.6728515-1.261074 0-2.2914999-.3829714-3.0913086-1.1489257-.7998087-.7659544-1.199707-1.7244409-1.199707-2.8754883 0-1.261074.3935508-2.2386033 1.1806641-2.9326172s1.819655-1.1214185 3.0976562-1.2822266z"/><path id="k" d="m12.4414062 19.7695312-3.04882808-8.8730468-3.24023437 8.8730468zm-4.47070308-11.85351558h3.07617188l7.2871094 20.08398438h-2.9804688l-2.0371094-6.015625h-7.94335932l-2.17382813 6.015625h-2.7890625zm14.39648438 16.18749998c0 .7109411.259763 1.2714823.7792969 1.6816406.5195338.4101584 1.134762.6152344 1.8457031.6152344.8658897 0 1.704423-.2005188 2.515625-.6015625 1.3671943-.6653679 2.0507813-1.7545497 2.0507813-3.2675781v-1.9824219c-.3007828.1914072-.6881487.3509108-1.1621094.4785157-.4739607.1276048-.9387998.2187497-1.3945313.2734374l-1.4902343.1914063c-.8932337.1184902-1.5631489.3053373-2.0097657.5605469-.7565142.4283875-1.1347656 1.1119744-1.1347656 2.0507812zm5.9609375-4.9765625c.565107-.072917.9433584-.3098938 1.1347656-.7109375.1093756-.2187511.1640625-.533201.1640625-.9433594 0-.8385458-.2984996-1.4469382-.8955078-1.8251953s-1.4514918-.5673828-2.5634765-.5673828c-1.2851627 0-2.1966119.3463507-2.734375 1.0390625-.3007828.3828144-.4967444.9524702-.5878907 1.7089844h-2.296875c.0455732-1.8046965.6311793-3.0602178 1.756836-3.7666016 1.1256566-.7063837 2.4313076-1.0595703 3.9169921-1.0595703 1.7226649 0 3.1217395.3281217 4.1972657.984375 1.0664116.6562533 1.5996093 1.6770764 1.5996093 3.0625v8.4355469c0 .2552096.0524084.4602857.1572266.6152344s.3258447.2324218.663086.2324218c.1093755 0 .2324211-.0068358.3691406-.0205078.1367194-.0136719.2825513-.0341795.4375-.0615234v1.8183594c-.3828144.1093755-.6744782.1777342-.875.2050781-.2005219.0273439-.4739566.0410156-.8203125.0410156-.8476605 0-1.4628887-.3007782-1.8457031-.9023437-.2005219-.319012-.3417965-.7701794-.4238282-1.3535156-.5013046.6562532-1.2213494 1.225909-2.1601562 1.7089843-.9388068.4830754-1.9733017.7246094-3.1035156.7246094-1.3580798 0-2.4677692-.4124308-3.3291016-1.2373047s-1.2919922-1.8570901-1.2919922-3.0966797c0-1.3580797.4238239-2.4108035 1.2714844-3.1582031s1.9596285-1.2076814 3.3359375-1.3808594z"/><path id="l" d="m13.3300781 20.1816406-3.2666015-9.5068359-3.47167972 9.5068359zm-4.79003904-12.70019529h3.29589844l7.8076172 21.51855469h-3.1933594l-2.1826172-6.4453125h-8.51074216l-2.32910156 6.4453125h-2.98828125zm15.42480474 17.34374999c0 .7617226.2783175 1.3623025.8349609 1.8017578s1.2158165.6591797 1.9775391.6591797c.927739 0 1.8261675-.2148416 2.6953124-.6445312 1.4648511-.7128942 2.1972657-1.8798747 2.1972657-3.5009766v-2.1240234c-.3222673.2050791-.7373022.3759758-1.2451172.5126953-.5078151.1367194-1.0058569.2343747-1.4941406.2929687l-1.5966797.2050782c-.9570361.1269537-1.6748023.327147-2.1533203.6005859-.810551.4589867-1.2158203 1.1914012-1.2158203 2.1972656zm6.3867187-5.3320312c.6054718-.0781254 1.0107412-.3320291 1.2158203-.7617188.1171881-.2343762.1757813-.5712869.1757813-1.0107422 0-.898442-.3198211-1.5502909-.9594727-1.9555664-.6396516-.4052754-1.5551698-.6079101-2.746582-.6079101-1.37696 0-2.3535128.37109-2.9296875 1.1132812-.3222673.4101583-.5322261 1.0205038-.6298828 1.8310547h-2.4609375c.0488283-1.9336034.6762635-3.2788048 1.8823242-4.0356445 1.2060607-.7568398 2.6049725-1.1352539 4.1967773-1.1352539 1.8457124 0 3.3447208.3515589 4.4970703 1.0546875 1.1425839.7031285 1.7138672 1.7968675 1.7138672 3.28125v9.0380859c0 .2734389.0561518.4931632.1684571.6591797.1123052.1660164.3491192.2490234.7104492.2490234.1171881 0 .2490227-.0073241.3955078-.0219726s.3027335-.036621.46875-.065918v1.9482422c-.4101583.1171881-.7226552.1904295-.9375.2197266-.2148448.029297-.5078107.0439453-.8789063.0439453-.9082076 0-1.5673807-.3222624-1.977539-.9667969-.2148448-.3417986-.3662105-.8251922-.4541016-1.4501953-.537112.7031285-1.3085887 1.3134739-2.3144531 1.8310547-1.0058644.5175807-2.1142518.7763672-3.3251953.7763672-1.4550854 0-2.6440384-.4418902-3.5668946-1.3256836-.9228561-.8837935-1.3842773-1.9897395-1.3842773-3.3178711 0-1.4550854.454097-2.5830038 1.3623047-3.3837891s2.099602-1.2939444 3.5742187-1.4794922z"/><path id="m" d="m14.21875 21.59375-3.484375-10.140625-3.703125 10.140625zm-5.109375-13.546875h3.515625l8.328125 22.953125h-3.40625l-2.328125-6.875h-9.078125l-2.484375 6.875h-3.1875zm16.453125 18.5c0 .8125041.296872 1.4531227.890625 1.921875s1.2968709.703125 2.109375.703125c.9895883 0 1.947912-.2291644 2.875-.6875 1.5625078-.7604205 2.34375-2.0051997 2.34375-3.734375v-2.265625c-.3437517.2187511-.7864556.4010409-1.328125.546875s-1.0729141.2499997-1.59375.3125l-1.703125.21875c-1.0208384.1354173-1.7864558.3489569-2.296875.640625-.8645877.4895858-1.296875 1.270828-1.296875 2.34375zm6.8125-5.6875c.6458366-.0833338 1.0781239-.3541644 1.296875-.8125.1250006-.2500013.1875-.6093727.1875-1.078125 0-.9583381-.3411424-1.6536437-1.0234375-2.0859375s-1.6588478-.6484375-2.9296875-.6484375c-1.4687573 0-2.5104136.3958294-3.125 1.1875-.3437517.4375022-.5677078 1.0885373-.671875 1.953125h-2.625c.0520836-2.0625103.7213477-3.4973918 2.0078125-4.3046875s2.7786373-1.2109375 4.4765625-1.2109375c1.9687598 0 3.5677022.3749963 4.796875 1.125 1.2187561.7500037 1.828125 1.9166587 1.828125 3.5v9.640625c0 .2916681.0598952.5260408.1796875.703125s.3723939.265625.7578125.265625c.1250006 0 .2656242-.0078124.421875-.0234375s.3229158-.0390623.5-.0703125v2.078125c-.4375022.1250006-.7708322.2031248-1 .234375s-.5416647.046875-.9375.046875c-.9687548 0-1.6718728-.3437466-2.109375-1.03125-.2291678-.3645852-.3906245-.880205-.484375-1.546875-.5729195.7500037-1.395828 1.4010389-2.46875 1.953125s-2.2552019.828125-3.546875.828125c-1.5520911 0-2.8203076-.4713495-3.8046875-1.4140625s-1.4765625-2.1223887-1.4765625-3.5390625c0-1.5520911.4843702-2.7552041 1.453125-3.609375s2.2395755-1.3802073 3.8125-1.578125z"/></defs><g fill="none" fill-rule="evenodd"><g fill="#000" transform="translate(2 430)"><use xlink:href="#a"/><use xlink:href="#a"/></g><g transform="translate(156 237)"><use fill="#000" xlink:href="#b"/><use fill="#0080ff" xlink:href="#b"/></g><g fill="#000"><g transform="translate(386 430)"><use xlink:href="#c"/><use xlink:href="#c"/></g><g transform="translate(40 187)"><use xlink:href="#d"/><use xlink:href="#d"/></g><g transform="translate(504 170)"><use xlink:href="#e"/><use xlink:href="#e"/></g><g transform="translate(417 172)"><use xlink:href="#f"/><use xlink:href="#f"/></g><g transform="translate(122 186)"><use xlink:href="#g"/><use xlink:href="#g"/></g><g transform="translate(156 184)"><use xlink:href="#h"/><use xlink:href="#h"/></g><g transform="translate(194 182)"><use xlink:href="#i"/><use xlink:href="#i"/></g><g transform="translate(233 180)"><use xlink:href="#j"/><use xlink:href="#j"/></g><g transform="translate(276 177)"><use xlink:href="#k"/><use xlink:href="#k"/></g><g transform="translate(320 176)"><use xlink:href="#l"/><use xlink:href="#l"/></g><g transform="translate(368 174)"><use xlink:href="#m"/><use xlink:href="#m"/></g></g><rect height="329" rx="4" stroke="#dbdbdb" width="575" x=".5" y="22.5"/><path d="m0 393h270v27h-270z" fill="#f0f0f0" fill-rule="nonzero"/><path d="m305 393h270v27h-270z" fill="#f0f0f0" fill-rule="nonzero"/><text fill="#0080ff" font-family="Menlo-Regular, Menlo" font-size="14" transform="translate(8 399)"><tspan x="0" y="13">-hiq-unitless-lower-font-range</tspan></text><text fill="#0080ff" font-family="Menlo-Regular, Menlo" font-size="14" transform="translate(313 400)"><tspan x="0" y="13">-hiq-unitless-lower-font-range</tspan></text><path d="m96.5.5v369.012195" stroke="#0080ff" stroke-dasharray="3" stroke-linecap="square"/><path d="m103 232h369" stroke="#0080ff" stroke-linecap="square"/><path d="m103 229v6" stroke="#0080ff" stroke-linecap="square"/><path d="m472 229v6" stroke="#0080ff" stroke-linecap="square"/><path d="m477.5.5v369.012195" stroke="#0080ff" stroke-dasharray="3" stroke-linecap="square"/><path d="m311 45h245v27h-245z" fill="#f0f0f0" fill-rule="nonzero"/><path d="m22 45h245v27h-245z" fill="#f0f0f0" fill-rule="nonzero"/><text fill="#0080ff" font-family="Menlo-Regular, Menlo" font-size="14" transform="translate(319 52)"><tspan x="0" y="13">-hiq-unitless-max-font-size</tspan></text><text fill="#0080ff" font-family="Menlo-Regular, Menlo" font-size="14" transform="translate(30 52)"><tspan x="0" y="13">-hiq-unitless-min-font-size</tspan></text></g></svg>