<svg width="566" height="354" viewBox="0 0 566 354" version="1.1" xmlns="http://www.w3.org/2000/svg" xmlns:xlink="http://www.w3.org/1999/xlink">
    <g id="Page-1" stroke="none" stroke-width="1" fill="none" fill-rule="evenodd">
        <g id="easy-theming">
            <rect id="Rectangle-5" fill="#FFF" fill-rule="nonzero" x="0" y="0" width="566" height="354"/>
            <g id="Group-6" transform="translate(61.000000, 37.000000)">
                <g id="Aa" fill="#9B9B9B">
                    <path
                        d="M21.8662109,30 L19.1591797,22.1455078 L7.87988281,22.1455078 L5.15234375,30 L0.435546875,30 L11.1201172,0.407226562 L16.0625,0.407226562 L26.7470703,30 L21.8662109,30 Z M13.3554688,5.78027344 L9.04882812,18.2900391 L17.9902344,18.2900391 L13.7041016,5.78027344 L13.3554688,5.78027344 Z M38.4365234,26.6572266 C41.7587891,26.6572266 44.2197266,24.5449219 44.2197266,21.7763672 L44.2197266,19.9101562 L38.7646484,20.2587891 C35.6884766,20.4638672 34.2939453,21.5097656 34.2939453,23.4785156 C34.2939453,25.4882812 36.0371094,26.6572266 38.4365234,26.6572266 Z M37.3085938,30.3691406 C33.0019531,30.3691406 29.8642578,27.7646484 29.8642578,23.6835938 C29.8642578,19.6640625 32.8583984,17.3466797 38.1699219,17.0185547 L44.2197266,16.6699219 L44.2197266,14.7421875 C44.2197266,12.3837891 42.6611328,11.0507813 39.6464844,11.0507813 C37.1855469,11.0507813 35.4833984,11.953125 34.9912109,13.5322266 L30.7255859,13.5322266 C31.1767578,9.69726563 34.7861328,7.23632813 39.8515625,7.23632813 C45.4501953,7.23632813 48.6083984,10.0253906 48.6083984,14.7421875 L48.6083984,30 L44.3632812,30 L44.3632812,26.8623047 L44.0146484,26.8623047 C42.6816406,29.0976563 40.2412109,30.3691406 37.3085938,30.3691406 Z"
                        transform="translate(121.000000, 238.000000)"/>
                </g>
                <g id="Aa-Copy" transform="translate(198.000000, 238.000000)" fill="#9B9B9B">
                    <path
                        d="M21.8662109,30 L19.1591797,22.1455078 L7.87988281,22.1455078 L5.15234375,30 L0.435546875,30 L11.1201172,0.407226562 L16.0625,0.407226562 L26.7470703,30 L21.8662109,30 Z M13.3554688,5.78027344 L9.04882812,18.2900391 L17.9902344,18.2900391 L13.7041016,5.78027344 L13.3554688,5.78027344 Z M38.4365234,26.6572266 C41.7587891,26.6572266 44.2197266,24.5449219 44.2197266,21.7763672 L44.2197266,19.9101562 L38.7646484,20.2587891 C35.6884766,20.4638672 34.2939453,21.5097656 34.2939453,23.4785156 C34.2939453,25.4882812 36.0371094,26.6572266 38.4365234,26.6572266 Z M37.3085938,30.3691406 C33.0019531,30.3691406 29.8642578,27.7646484 29.8642578,23.6835938 C29.8642578,19.6640625 32.8583984,17.3466797 38.1699219,17.0185547 L44.2197266,16.6699219 L44.2197266,14.7421875 C44.2197266,12.3837891 42.6611328,11.0507813 39.6464844,11.0507813 C37.1855469,11.0507813 35.4833984,11.953125 34.9912109,13.5322266 L30.7255859,13.5322266 C31.1767578,9.69726563 34.7861328,7.23632813 39.8515625,7.23632813 C45.4501953,7.23632813 48.6083984,10.0253906 48.6083984,14.7421875 L48.6083984,30 L44.3632812,30 L44.3632812,26.8623047 L44.0146484,26.8623047 C42.6816406,29.0976563 40.2412109,30.3691406 37.3085938,30.3691406 Z"
                        id="Aa"/>
                </g>
                <rect id="Rectangle-3" fill="#E0E0E0" fill-rule="nonzero" x="0" y="59" width="80" height="6"/>
                <rect id="Rectangle-3-Copy-10" fill="#E0E0E0" fill-rule="nonzero" x="120" y="0" width="51" height="6"/>
                <rect id="Rectangle-3-Copy-11" fill="#E0E0E0" fill-rule="nonzero" x="201" y="0" width="51" height="6"/>
                <rect id="Rectangle-3-Copy-12" fill="#E0E0E0" fill-rule="nonzero" x="359" y="0" width="51" height="6"/>
                <rect id="Rectangle-3-Copy-13" fill="#E0E0E0" fill-rule="nonzero" x="120" y="277" width="50"
                      height="6"/>
                <rect id="Rectangle-3-Copy-14" fill="#E0E0E0" fill-rule="nonzero" x="197" y="277" width="50"
                      height="6"/>
                <rect id="Rectangle-3-Copy-4" fill="#F4F4F4" fill-rule="nonzero" x="120" y="57" width="290"
                      height="61"/>
                <rect id="Rectangle-3-Copy-9" fill="#057FFF" fill-rule="nonzero" x="0" y="0" width="31" height="29"/>
                <rect id="Rectangle-3-Copy" fill="#E0E0E0" fill-rule="nonzero" x="0" y="77" width="80" height="6"/>
                <rect id="Rectangle-3-Copy-2" fill="#E0E0E0" fill-rule="nonzero" x="0" y="95" width="80" height="6"/>
                <rect id="Rectangle-3-Copy-5" fill="#E0E0E0" fill-rule="nonzero" x="120" y="203" width="50" height="6"/>
                <rect id="Rectangle-3-Copy-6" fill="#E0E0E0" fill-rule="nonzero" x="197" y="203" width="50" height="6"/>
                <rect id="Rectangle-3-Copy-7" fill="#E0E0E0" fill-rule="nonzero" x="275" y="203" width="50" height="6"/>
                <rect id="Rectangle-3-Copy-8" fill="#E0E0E0" fill-rule="nonzero" x="360" y="203" width="50" height="6"/>
                <circle id="Oval-3" fill="#057FFF" fill-rule="nonzero" cx="145" cy="165" r="25"/>
                <circle id="Oval-3-Copy" fill="#000" fill-rule="nonzero" cx="222" cy="165" r="25"/>
                <circle id="Oval-3-Copy-2" fill="#4A4A4A" fill-rule="nonzero" cx="300" cy="165" r="25"/>
                <circle id="Oval-3-Copy-3" fill="#9B9B9B" fill-rule="nonzero" cx="385" cy="165" r="25"/>
            </g>
        </g>
    </g>
</svg>
