<?xml version="1.0" encoding="UTF-8"?>
<svg width="800px" height="600px" viewBox="0 0 800 600" version="1.1" xmlns="http://www.w3.org/2000/svg" xmlns:xlink="http://www.w3.org/1999/xlink">
    <g id="Page-1" stroke="none" stroke-width="1" fill="none" fill-rule="evenodd">
        <g id="placeholder">
            <rect id="Rectangle-Copy-9" fill="#F0F0F0" fill-rule="nonzero" x="0" y="0" width="800" height="600"></rect>
            <g id="800-×-600" transform="translate(241.000000, 275.000000)" fill="#BFBFC6">
                <path d="M8.448,14.2 C8.448,15.592007 8.6879976,16.8039948 9.168,17.836 C9.6480024,18.8680052 10.2959959,19.7199966 11.112,20.392 C11.9280041,21.0640034 12.8879945,21.5679983 13.992,21.904 C15.0960055,22.2400017 16.2719938,22.408 17.52,22.408 C19.9680122,22.408 21.9839921,21.6880072 23.568,20.248 C25.1520079,18.8079928 25.944,16.792013 25.944,14.2 C25.944,11.607987 25.140008,9.6520066 23.532,8.332 C21.923992,7.0119934 19.8720125,6.352 17.376,6.352 C16.175994,6.352 15.0240055,6.51999832 13.92,6.856 C12.8159945,7.19200168 11.868004,7.69599664 11.076,8.368 C10.283996,9.04000336 9.6480024,9.8559952 9.168,10.816 C8.6879976,11.7760048 8.448,12.9039935 8.448,14.2 Z M1.968,13.984 C1.968,11.8719894 2.37599592,10.012008 3.192,8.404 C4.00800408,6.79599196 5.11199304,5.44000552 6.504,4.336 C7.89600696,3.23199448 9.491991,2.39200288 11.292,1.816 C13.092009,1.23999712 14.9759902,0.952 16.944,0.952 C19.7280139,0.952 22.1039902,1.32399628 24.072,2.068 C26.0400098,2.81200372 27.6359939,3.79599388 28.86,5.02 C30.0840061,6.24400612 30.9839971,7.6359922 31.56,9.196 C32.1360029,10.7560078 32.424,12.3519918 32.424,13.984 C32.424,16.2880115 31.7880064,18.3879905 30.516,20.284 C29.2439936,22.1800095 27.5280108,23.6079952 25.368,24.568 C28.4400154,25.5280048 30.7199926,27.0999891 32.208,29.284 C33.6960074,31.4680109 34.44,34.1439842 34.44,37.312 C34.44,39.8080125 33.9960044,42.0159904 33.108,43.936 C32.2199956,45.8560096 31.0200076,47.4759934 29.508,48.796 C27.9959924,50.1160066 26.2080103,51.1119966 24.144,51.784 C22.0799897,52.4560034 19.8720118,52.792 17.52,52.792 C15.0719878,52.792 12.7920106,52.4800031 10.68,51.856 C8.56798944,51.2319969 6.7320078,50.2720065 5.172,48.976 C3.6119922,47.6799935 2.38800444,46.0600097 1.5,44.116 C0.61199556,42.1719903 0.168,39.904013 0.168,37.312 C0.168,34.2879849 0.93599232,31.6600112 2.472,29.428 C4.00800768,27.1959888 6.2159856,25.576005 9.096,24.568 C6.9359892,23.7039957 5.20800648,22.3000097 3.912,20.356 C2.61599352,18.4119903 1.968,16.2880115 1.968,13.984 Z M6.648,37.6 C6.648,40.6720154 7.6679898,43.0839912 9.708,44.836 C11.7480102,46.5880088 14.3519842,47.464 17.52,47.464 C19.0560077,47.464 20.4599936,47.2120025 21.732,46.708 C23.0040064,46.2039975 24.1079953,45.5080044 25.044,44.62 C25.9800047,43.7319956 26.6999975,42.688006 27.204,41.488 C27.7080025,40.287994 27.96,38.9680072 27.96,37.528 C27.96,36.135993 27.6840028,34.8520059 27.132,33.676 C26.5799972,32.4999941 25.8240048,31.4800043 24.864,30.616 C23.9039952,29.7519957 22.7880064,29.0680025 21.516,28.564 C20.2439936,28.0599975 18.8880072,27.808 17.448,27.808 C15.9599926,27.808 14.5560066,28.0359977 13.236,28.492 C11.9159934,28.9480023 10.7640049,29.6079957 9.78,30.472 C8.79599508,31.3360043 8.02800276,32.367994 7.476,33.568 C6.92399724,34.768006 6.648,36.1119926 6.648,37.6 Z M46.824,26.872 C46.824,28.7920096 46.8839994,30.9399881 47.004,33.316 C47.1240006,35.6920119 47.5079968,37.9239896 48.156,40.012 C48.8040032,42.1000104 49.8479928,43.8639928 51.288,45.304 C52.7280072,46.7440072 54.743987,47.464 57.336,47.464 C59.928013,47.464 61.9439928,46.7440072 63.384,45.304 C64.8240072,43.8639928 65.8679968,42.1000104 66.516,40.012 C67.1640032,37.9239896 67.5479994,35.6920119 67.668,33.316 C67.7880006,30.9399881 67.848,28.7920096 67.848,26.872 C67.848,25.6239938 67.8360001,24.2440076 67.812,22.732 C67.7879999,21.2199924 67.6680011,19.7080076 67.452,18.196 C67.2359989,16.6839924 66.924002,15.2080072 66.516,13.768 C66.107998,12.3279928 65.508004,11.0680054 64.716,9.988 C63.923996,8.9079946 62.928006,8.03200336 61.728,7.36 C60.527994,6.68799664 59.0640086,6.352 57.336,6.352 C55.6079914,6.352 54.144006,6.68799664 52.944,7.36 C51.743994,8.03200336 50.748004,8.9079946 49.956,9.988 C49.163996,11.0680054 48.564002,12.3279928 48.156,13.768 C47.747998,15.2080072 47.4360011,16.6839924 47.22,18.196 C47.0039989,19.7080076 46.8840001,21.2199924 46.86,22.732 C46.8359999,24.2440076 46.824,25.6239938 46.824,26.872 Z M40.344,26.944 C40.344,25.0719906 40.3919995,23.1280101 40.488,21.112 C40.5840005,19.0959899 40.8239981,17.1280096 41.208,15.208 C41.5920019,13.2879904 42.1439964,11.4640086 42.864,9.736 C43.5840036,8.00799136 44.5679938,6.49600648 45.816,5.2 C47.0640062,3.90399352 48.6359905,2.87200384 50.532,2.104 C52.4280095,1.33599616 54.6959868,0.952 57.336,0.952 C59.9760132,0.952 62.2439905,1.33599616 64.14,2.104 C66.0360095,2.87200384 67.6079938,3.90399352 68.856,5.2 C70.1040062,6.49600648 71.0879964,8.00799136 71.808,9.736 C72.5280036,11.4640086 73.0799981,13.2879904 73.464,15.208 C73.8480019,17.1280096 74.0879995,19.0959899 74.184,21.112 C74.2800005,23.1280101 74.328,25.0719906 74.328,26.944 C74.328,28.8160094 74.2800005,30.7599899 74.184,32.776 C74.0879995,34.7920101 73.8480019,36.7599904 73.464,38.68 C73.0799981,40.6000096 72.5280036,42.4119915 71.808,44.116 C71.0879964,45.8200085 70.1040062,47.3199935 68.856,48.616 C67.6079938,49.9120065 66.0480094,50.9319963 64.176,51.676 C62.3039906,52.4200037 60.0240134,52.792 57.336,52.792 C54.6959868,52.792 52.4280095,52.4200037 50.532,51.676 C48.6359905,50.9319963 47.0640062,49.9120065 45.816,48.616 C44.5679938,47.3199935 43.5840036,45.8200085 42.864,44.116 C42.1439964,42.4119915 41.5920019,40.6000096 41.208,38.68 C40.8239981,36.7599904 40.5840005,34.7920101 40.488,32.776 C40.3919995,30.7599899 40.344,28.8160094 40.344,26.944 Z M86.856,26.872 C86.856,28.7920096 86.9159994,30.9399881 87.036,33.316 C87.1560006,35.6920119 87.5399968,37.9239896 88.188,40.012 C88.8360032,42.1000104 89.8799928,43.8639928 91.32,45.304 C92.7600072,46.7440072 94.775987,47.464 97.368,47.464 C99.960013,47.464 101.975993,46.7440072 103.416,45.304 C104.856007,43.8639928 105.899997,42.1000104 106.548,40.012 C107.196003,37.9239896 107.579999,35.6920119 107.7,33.316 C107.820001,30.9399881 107.88,28.7920096 107.88,26.872 C107.88,25.6239938 107.868,24.2440076 107.844,22.732 C107.82,21.2199924 107.700001,19.7080076 107.484,18.196 C107.267999,16.6839924 106.956002,15.2080072 106.548,13.768 C106.139998,12.3279928 105.540004,11.0680054 104.748,9.988 C103.955996,8.9079946 102.960006,8.03200336 101.76,7.36 C100.559994,6.68799664 99.0960086,6.352 97.368,6.352 C95.6399914,6.352 94.176006,6.68799664 92.976,7.36 C91.775994,8.03200336 90.780004,8.9079946 89.988,9.988 C89.195996,11.0680054 88.596002,12.3279928 88.188,13.768 C87.779998,15.2080072 87.4680011,16.6839924 87.252,18.196 C87.0359989,19.7080076 86.9160001,21.2199924 86.892,22.732 C86.8679999,24.2440076 86.856,25.6239938 86.856,26.872 Z M80.376,26.944 C80.376,25.0719906 80.4239995,23.1280101 80.52,21.112 C80.6160005,19.0959899 80.8559981,17.1280096 81.24,15.208 C81.6240019,13.2879904 82.1759964,11.4640086 82.896,9.736 C83.6160036,8.00799136 84.5999938,6.49600648 85.848,5.2 C87.0960062,3.90399352 88.6679905,2.87200384 90.564,2.104 C92.4600095,1.33599616 94.7279868,0.952 97.368,0.952 C100.008013,0.952 102.275991,1.33599616 104.172,2.104 C106.068009,2.87200384 107.639994,3.90399352 108.888,5.2 C110.136006,6.49600648 111.119996,8.00799136 111.84,9.736 C112.560004,11.4640086 113.111998,13.2879904 113.496,15.208 C113.880002,17.1280096 114.12,19.0959899 114.216,21.112 C114.312,23.1280101 114.36,25.0719906 114.36,26.944 C114.36,28.8160094 114.312,30.7599899 114.216,32.776 C114.12,34.7920101 113.880002,36.7599904 113.496,38.68 C113.111998,40.6000096 112.560004,42.4119915 111.84,44.116 C111.119996,45.8200085 110.136006,47.3199935 108.888,48.616 C107.639994,49.9120065 106.080009,50.9319963 104.208,51.676 C102.335991,52.4200037 100.056013,52.792 97.368,52.792 C94.7279868,52.792 92.4600095,52.4200037 90.564,51.676 C88.6679905,50.9319963 87.0960062,49.9120065 85.848,48.616 C84.5999938,47.3199935 83.6160036,45.8200085 82.896,44.116 C82.1759964,42.4119915 81.6240019,40.6000096 81.24,38.68 C80.8559981,36.7599904 80.6160005,34.7920101 80.52,32.776 C80.4239995,30.7599899 80.376,28.8160094 80.376,26.944 Z M142.512,46.816 L145.968,50.272 L159.072,37.168 L172.104,50.272 L175.56,46.816 L162.528,33.712 L175.488,20.752 L172.032,17.296 L159.072,30.256 L146.04,17.296 L142.584,20.752 L155.616,33.712 L142.512,46.816 Z M230.424,13.984 C230.135999,11.6799885 229.248007,9.83200696 227.76,8.44 C226.271993,7.04799304 224.304012,6.352 221.856,6.352 C219.263987,6.352 217.176008,6.98799364 215.592,8.26 C214.007992,9.53200636 212.772004,11.1399903 211.884,13.084 C210.995996,15.0280097 210.384002,17.1279887 210.048,19.384 C209.711998,21.6400113 209.52,23.7519902 209.472,25.72 L209.616,25.864 C211.056007,23.5119882 212.843989,21.8080053 214.98,20.752 C217.116011,19.6959947 219.575986,19.168 222.36,19.168 C224.808012,19.168 227.00399,19.5879958 228.948,20.428 C230.89201,21.2680042 232.523993,22.4319926 233.844,23.92 C235.164007,25.4080074 236.183996,27.1599899 236.904,29.176 C237.624004,31.1920101 237.984,33.3759882 237.984,35.728 C237.984,37.6000094 237.696003,39.5439899 237.12,41.56 C236.543997,43.5760101 235.596007,45.4119917 234.276,47.068 C232.955993,48.7240083 231.204011,50.0919946 229.02,51.172 C226.835989,52.2520054 224.136016,52.792 220.92,52.792 C217.127981,52.792 214.080012,52.0240077 211.776,50.488 C209.471988,48.9519923 207.696006,46.984012 206.448,44.584 C205.199994,42.183988 204.372002,39.5440144 203.964,36.664 C203.555998,33.7839856 203.352,31.0000134 203.352,28.312 C203.352,24.8079825 203.651997,21.4120164 204.252,18.124 C204.852003,14.8359836 205.871993,11.9200127 207.312,9.376 C208.752007,6.83198728 210.671988,4.79200768 213.072,3.256 C215.472012,1.71999232 218.495982,0.952 222.144,0.952 C226.368021,0.952 229.727988,2.06798884 232.224,4.3 C234.720012,6.53201116 236.159998,9.75997888 236.544,13.984 L230.424,13.984 Z M221.208,24.568 C219.479991,24.568 217.968006,24.867997 216.672,25.468 C215.375994,26.068003 214.272005,26.8839948 213.36,27.916 C212.447995,28.9480052 211.764002,30.1719929 211.308,31.588 C210.851998,33.0040071 210.624,34.5039921 210.624,36.088 C210.624,37.6720079 210.863998,39.159993 211.344,40.552 C211.824002,41.944007 212.507996,43.143995 213.396,44.152 C214.284004,45.160005 215.387993,45.963997 216.708,46.564 C218.028007,47.164003 219.527992,47.464 221.208,47.464 C222.888008,47.464 224.363994,47.164003 225.636,46.564 C226.908006,45.963997 227.975996,45.1360053 228.84,44.08 C229.704004,43.0239947 230.363998,41.8120068 230.82,40.444 C231.276002,39.0759932 231.504,37.6480074 231.504,36.16 C231.504,34.5759921 231.300002,33.0760071 230.892,31.66 C230.483998,30.2439929 229.848004,29.0200052 228.984,27.988 C228.119996,26.9559948 227.040006,26.1280031 225.744,25.504 C224.447994,24.8799969 222.936009,24.568 221.208,24.568 Z M250.152,26.872 C250.152,28.7920096 250.211999,30.9399881 250.332,33.316 C250.452001,35.6920119 250.835997,37.9239896 251.484,40.012 C252.132003,42.1000104 253.175993,43.8639928 254.616,45.304 C256.056007,46.7440072 258.071987,47.464 260.664,47.464 C263.256013,47.464 265.271993,46.7440072 266.712,45.304 C268.152007,43.8639928 269.195997,42.1000104 269.844,40.012 C270.492003,37.9239896 270.875999,35.6920119 270.996,33.316 C271.116001,30.9399881 271.176,28.7920096 271.176,26.872 C271.176,25.6239938 271.164,24.2440076 271.14,22.732 C271.116,21.2199924 270.996001,19.7080076 270.78,18.196 C270.563999,16.6839924 270.252002,15.2080072 269.844,13.768 C269.435998,12.3279928 268.836004,11.0680054 268.044,9.988 C267.251996,8.9079946 266.256006,8.03200336 265.056,7.36 C263.855994,6.68799664 262.392009,6.352 260.664,6.352 C258.935991,6.352 257.472006,6.68799664 256.272,7.36 C255.071994,8.03200336 254.076004,8.9079946 253.284,9.988 C252.491996,11.0680054 251.892002,12.3279928 251.484,13.768 C251.075998,15.2080072 250.764001,16.6839924 250.548,18.196 C250.331999,19.7080076 250.212,21.2199924 250.188,22.732 C250.164,24.2440076 250.152,25.6239938 250.152,26.872 Z M243.672,26.944 C243.672,25.0719906 243.72,23.1280101 243.816,21.112 C243.912,19.0959899 244.151998,17.1280096 244.536,15.208 C244.920002,13.2879904 245.471996,11.4640086 246.192,9.736 C246.912004,8.00799136 247.895994,6.49600648 249.144,5.2 C250.392006,3.90399352 251.963991,2.87200384 253.86,2.104 C255.756009,1.33599616 258.023987,0.952 260.664,0.952 C263.304013,0.952 265.571991,1.33599616 267.468,2.104 C269.364009,2.87200384 270.935994,3.90399352 272.184,5.2 C273.432006,6.49600648 274.415996,8.00799136 275.136,9.736 C275.856004,11.4640086 276.407998,13.2879904 276.792,15.208 C277.176002,17.1280096 277.416,19.0959899 277.512,21.112 C277.608,23.1280101 277.656,25.0719906 277.656,26.944 C277.656,28.8160094 277.608,30.7599899 277.512,32.776 C277.416,34.7920101 277.176002,36.7599904 276.792,38.68 C276.407998,40.6000096 275.856004,42.4119915 275.136,44.116 C274.415996,45.8200085 273.432006,47.3199935 272.184,48.616 C270.935994,49.9120065 269.376009,50.9319963 267.504,51.676 C265.631991,52.4200037 263.352013,52.792 260.664,52.792 C258.023987,52.792 255.756009,52.4200037 253.86,51.676 C251.963991,50.9319963 250.392006,49.9120065 249.144,48.616 C247.895994,47.3199935 246.912004,45.8200085 246.192,44.116 C245.471996,42.4119915 244.920002,40.6000096 244.536,38.68 C244.151998,36.7599904 243.912,34.7920101 243.816,32.776 C243.72,30.7599899 243.672,28.8160094 243.672,26.944 Z M290.184,26.872 C290.184,28.7920096 290.243999,30.9399881 290.364,33.316 C290.484001,35.6920119 290.867997,37.9239896 291.516,40.012 C292.164003,42.1000104 293.207993,43.8639928 294.648,45.304 C296.088007,46.7440072 298.103987,47.464 300.696,47.464 C303.288013,47.464 305.303993,46.7440072 306.744,45.304 C308.184007,43.8639928 309.227997,42.1000104 309.876,40.012 C310.524003,37.9239896 310.907999,35.6920119 311.028,33.316 C311.148001,30.9399881 311.208,28.7920096 311.208,26.872 C311.208,25.6239938 311.196,24.2440076 311.172,22.732 C311.148,21.2199924 311.028001,19.7080076 310.812,18.196 C310.595999,16.6839924 310.284002,15.2080072 309.876,13.768 C309.467998,12.3279928 308.868004,11.0680054 308.076,9.988 C307.283996,8.9079946 306.288006,8.03200336 305.088,7.36 C303.887994,6.68799664 302.424009,6.352 300.696,6.352 C298.967991,6.352 297.504006,6.68799664 296.304,7.36 C295.103994,8.03200336 294.108004,8.9079946 293.316,9.988 C292.523996,11.0680054 291.924002,12.3279928 291.516,13.768 C291.107998,15.2080072 290.796001,16.6839924 290.58,18.196 C290.363999,19.7080076 290.244,21.2199924 290.22,22.732 C290.196,24.2440076 290.184,25.6239938 290.184,26.872 Z M283.704,26.944 C283.704,25.0719906 283.752,23.1280101 283.848,21.112 C283.944,19.0959899 284.183998,17.1280096 284.568,15.208 C284.952002,13.2879904 285.503996,11.4640086 286.224,9.736 C286.944004,8.00799136 287.927994,6.49600648 289.176,5.2 C290.424006,3.90399352 291.995991,2.87200384 293.892,2.104 C295.788009,1.33599616 298.055987,0.952 300.696,0.952 C303.336013,0.952 305.603991,1.33599616 307.5,2.104 C309.396009,2.87200384 310.967994,3.90399352 312.216,5.2 C313.464006,6.49600648 314.447996,8.00799136 315.168,9.736 C315.888004,11.4640086 316.439998,13.2879904 316.824,15.208 C317.208002,17.1280096 317.448,19.0959899 317.544,21.112 C317.64,23.1280101 317.688,25.0719906 317.688,26.944 C317.688,28.8160094 317.64,30.7599899 317.544,32.776 C317.448,34.7920101 317.208002,36.7599904 316.824,38.68 C316.439998,40.6000096 315.888004,42.4119915 315.168,44.116 C314.447996,45.8200085 313.464006,47.3199935 312.216,48.616 C310.967994,49.9120065 309.408009,50.9319963 307.536,51.676 C305.663991,52.4200037 303.384013,52.792 300.696,52.792 C298.055987,52.792 295.788009,52.4200037 293.892,51.676 C291.995991,50.9319963 290.424006,49.9120065 289.176,48.616 C287.927994,47.3199935 286.944004,45.8200085 286.224,44.116 C285.503996,42.4119915 284.952002,40.6000096 284.568,38.68 C284.183998,36.7599904 283.944,34.7920101 283.848,32.776 C283.752,30.7599899 283.704,28.8160094 283.704,26.944 Z"></path>
            </g>
        </g>
    </g>
</svg>
